<?xml version="1.0" encoding="utf-8"?>
<!-- Generator: Adobe Illustrator 24.0.1, SVG Export Plug-In . SVG Version: 6.00 Build 0)  -->
<svg version="1.1" id="Layer_1" xmlns="http://www.w3.org/2000/svg" xmlns:xlink="http://www.w3.org/1999/xlink" x="0px" y="0px"
	 viewBox="0 0 297.8 252.3" style="enable-background:new 0 0 297.8 252.3;" xml:space="preserve">
<style type="text/css">
	.st0{fill:#FFFFFF;}
	.st1{clip-path:url(#SVGID_2_);}
	.st2{display:none;}
	.st3{display:inline;}
	.st4{fill:url(#SVGID_3_);}
	.st5{fill:url(#SVGID_4_);}
	.st6{fill:url(#SVGID_5_);}
	.st7{fill:url(#SVGID_6_);}
	.st8{fill:url(#SVGID_7_);}
	.st9{fill:url(#SVGID_8_);}
	.st10{fill:url(#SVGID_9_);}
	.st11{fill:url(#SVGID_10_);}
	.st12{fill:url(#SVGID_11_);}
	.st13{fill:url(#SVGID_12_);}
	.st14{fill:url(#SVGID_13_);}
	.st15{fill:url(#SVGID_14_);}
	.st16{fill:url(#SVGID_15_);}
	.st17{fill:url(#SVGID_16_);}
	.st18{fill:url(#SVGID_17_);}
	.st19{fill:url(#SVGID_18_);}
	.st20{fill:url(#SVGID_19_);}
	.st21{fill:url(#SVGID_20_);}
	.st22{fill:url(#SVGID_21_);}
	.st23{fill:url(#SVGID_22_);}
	.st24{fill:url(#SVGID_23_);}
	.st25{fill:url(#SVGID_24_);}
	.st26{fill:url(#SVGID_25_);}
	.st27{fill:url(#SVGID_26_);}
	.st28{fill:url(#SVGID_27_);}
	.st29{fill:url(#SVGID_28_);}
	.st30{fill:url(#SVGID_29_);}
	.st31{fill:url(#SVGID_30_);}
	.st32{fill:url(#SVGID_31_);}
	.st33{fill:url(#SVGID_32_);}
	.st34{fill:url(#SVGID_33_);}
	.st35{fill:url(#SVGID_34_);}
	.st36{fill:url(#SVGID_35_);}
	.st37{fill:url(#SVGID_36_);}
	.st38{fill:url(#SVGID_37_);}
	.st39{fill:url(#SVGID_38_);}
	.st40{fill:url(#SVGID_39_);}
	.st41{fill:url(#SVGID_40_);}
	.st42{fill:url(#SVGID_41_);}
	.st43{fill:url(#SVGID_42_);}
	.st44{fill:url(#SVGID_43_);}
	.st45{fill:url(#SVGID_44_);}
	.st46{fill:url(#SVGID_45_);}
	.st47{fill:url(#SVGID_46_);}
	.st48{fill:url(#SVGID_47_);}
	.st49{display:none;fill:#FFFFFF;}
</style>
<g>
	<path id="Ellipse" class="st0" d="M225,77.8c0,28.3-15.2,53-37.8,66.4h-78.7C85.8,130.8,70.6,106,70.6,77.8
		c0-42.6,34.6-77.2,77.2-77.2S225,35.1,225,77.8z"/>
	<g>
		<g>
			<g>
				<defs>
					<path id="SVGID_1_" d="M225.3,77.5c0,28.4-15.2,53.2-38,66.7h-79c-22.8-13.5-38-38.3-38-66.7C70.3,34.7,105,0,147.8,0
						S225.3,34.7,225.3,77.5z"/>
				</defs>
				<clipPath id="SVGID_2_">
					<use xlink:href="#SVGID_1_"  style="overflow:visible;"/>
				</clipPath>
				<g id="WORKER_2_" class="st1">
					<path d="M193.7,144.2c-29.4,0-58.8,0-88.2,0c0.1-0.5,0.4-0.7,0.7-1c3.9-3.7,7.8-7.4,11.7-11c1.9-1.7,3.6-3.6,5.9-4.8
						c0.6-0.3,0.8-0.7,0.8-1.3c0-23.1,0-46.1,0-69.2c0-0.7,0-1.3-1-1.1c-0.6,0.1-0.6-0.3-0.6-0.7c0-1.7,0-3.3,0-5c0-0.7-0.1-1-0.9-1
						c-7,0-13.9,0-20.9,0c-0.3,0-0.8,0-0.8,0.2c0.3,1.1-0.9,1.5-1,2.4c-0.3,1.9-0.7,3.8-1,5.8c-0.2,1.4,0.2,3.1-0.9,4.1
						c-1.5,1.5-0.7,3-0.5,4.5c0.1,0.7,0.2,1.2-0.3,1.7c-0.4,0.4-1,0.5-1.5,0.2c-0.7-0.3-0.8-0.9-0.5-1.8c0.2,0.8,0.5,1.3,1.2,1
						s0.4-0.9,0.2-1.4c-0.2-0.6-0.3-1.2-0.2-1.8c0.1-0.9,0-1.6-0.8-2.2c-0.6-0.4-0.9-1.2-0.7-1.8c0.6-2-0.3-3.8-0.7-5.7
						c-0.3-1.5-0.7-2.9-1.4-4.3c-0.3-0.5-0.3-0.8-0.9-0.8c-5.2,0-10.4,0-15.7,0c0-0.1,0-0.2,0-0.3c0.7,0,0.6-0.7,0.8-1
						c0.4-0.9,0.8-1.6,1.8-2.1c1.5-0.8,2.8-2.1,4.2-3.2c0-0.1-0.1-0.2-0.1-0.3c-1,0-2,0-3,0c0.2-1.2,0.8-1.6,2-1.6
						c5.7,0,11.3,0,16.9,0c0.8,0,1.7-0.1,2.5-0.4c2.7-1.1,5.3-2.2,8-3.3c6.3-2.6,12.6-5.2,18.9-7.9c0.5-0.2,0.7,0,1,0.3
						c6.6,4.6,13.2,9.2,19.8,13.8c1,0.7,2,1.1,3.3,1.1c1.7-0.1,3.4,0,5.1,0c0.7,0,1,0.1,0.9,0.9c-0.1,2,0,3.9,0,5.9
						c0,0.7-0.2,0.9-0.9,0.9c-3.8,0-7.6,0-11.5,0c-0.8,0-1-0.2-1-1c0.1-1.1,0.4-2.6-0.2-3.2c-0.7-0.7-2.2-0.1-3.3-0.3
						c-1.2-0.2-1.4,0.3-1.4,1.4c0,22.6,0,45.1,0,67.7c0,0.4-0.1,0.8,0.2,1.4c0.2-0.7,0.4-1.3,0.7-1.8c1.3-3.4,2.9-4.3,6.3-3.3
						c3.1,0.9,6.1,1.8,9.3,2.8c-0.4-0.7-0.9-1.1-1.4-1.4c-2.2-1.6-4.6-2.9-7-4.2c-1.3-0.7-1.4-1.3-0.4-2.4c0.5-0.6,1.1-1.1,1.7-1.6
						c-1.6-1-2.1-1.8-2-3.6c0.1-1,0.2-2,0.4-3c0.1-0.6,0-0.7-0.6-0.7c-1.2-0.1-2.4-0.2-3.7-0.3c-2-0.3-2.4-0.8-2.3-2.9
						c0.1-1.2,0.8-1.9,1.7-2.5c0.7-0.4,0.9-0.9,0.9-1.7c-0.1-2.1,0-4.2-0.2-6.2c-0.2-2.8-0.1-5.5,0.6-8.2
						c1.8-7.3,6.5-12.5,12.8-16.3c5.1-3.1,10.6-4.9,16.6-5.4c7.9-0.7,15.2,0.8,21.2,6.3c0.6,0.6,1.4,1,2.6,0.8
						c-6.4-7-14.6-9.2-23.3-10.3c0.6-0.4,1.2-0.3,1.9-0.3c3.4,0.1,6.9,0.3,10.3,1c11,2.1,18.4,8.2,21.4,19.2
						c1.4,4.9,1.4,10,1.7,15.1c0,0.9,0.3,1.5,1,2.1c3.1,2.7,6.2,5.4,9.3,8.1c0.2,0.2,0.7,0.4,0.5,0.8c-0.2,0.3-0.6,0.1-0.8,0.1
						c-3.7-0.4-7.4-0.8-11.1-1.4c-4.9-0.7-9.7-1.5-14.6-2.2c-5.4-0.8-10.8-1.7-16.2-2.5c-1.9-0.3-3.7-0.8-5.8-0.6
						c0.3,0.1,0.4,0.2,0.5,0.2c9.6,2.6,19.2,5.1,28.8,7.7c0.9,0.2,1.8,0.6,2.3,1.4c1.8,3.2,3.6,6.5,5.4,9.7c0.4,0.7,0.3,1.3-0.1,1.9
						c-0.9,1.2-2.1,1.7-3.5,1.7c-0.9,0-1.2,0.3-1.3,1.2c-0.1,0.9-0.1,1.8-0.1,2.8c0,0.8,0,1.5-0.9,1.9c-0.6,0.3-0.7,0.9-0.5,1.5
						c0.3,0.9,0.1,1.7-0.7,2.3c-0.8,0.5-0.9,1.3-1.1,2c-0.2,1.2-0.4,2.3-0.6,3.5c-0.2,1.6-1,2.6-2.5,3.2c-1.1,0.4-2.3,0.3-3.4,0.1
						c-2.6-0.5-4.9-1.7-7.1-3.1c-0.8-0.5-0.8-0.5-1.6-0.4c1.5,1.3,3.1,2.5,4.9,3.4c2.8,1.4,5.6,2.6,8.7,1.4c2.3-0.8,4.4-0.5,6.6-0.1
						c0.6,0.1,0.8,0.4,0.3,0.9c-1.1,1-2.2,2.1-3.4,3.1C199.3,140.1,196.4,142.1,193.7,144.2z M133.7,47.7c0.7,0.3,1.5,0,1.5,0.9
						c-0.1,2.2,0,4.3,0,6.5c0,0.3,0,0.7-0.4,0.6c-1.2-0.2-1,0.6-1,1.3c0,21.6,0,43.2,0,64.7c0,0.4,0,0.8,0,1.4
						c1.4-0.9,2.5-1.7,3.6-2.5c0.8-0.5,1-1.2,1-2.1c0-18.8,0-37.7,0-56.6c0-4.5,0-8.9,0-13.4c0-1-0.3-1.2-1.2-1.3
						C136.1,47.3,135.1,47.5,133.7,47.7z M127.6,31.2c-7.9,3.1-15.7,6.1-23.5,9.2c0,0.1,0.1,0.2,0.1,0.3c0.5,0,0.9,0,1.4,0
						c4.9,0,9.8,0,14.6,0c0.3,0,1-0.3,0.9,0.4c-0.4,2.7,2.2,3.6,3.3,5.8C125.5,41.5,126.5,36.5,127.6,31.2z M128.9,30.9
						c0.6,1.8,1,3.4,1.5,4.9c0.5,1.6,0.9,3.2,1.6,4.7c0.5,1.3,0.4,3.1,1.5,3.7c1.1,0.6,2.7,0.1,4.1,0.2h0.1c0.5,0.1,0.7-0.1,0.7-0.6
						c0-1.9-0.1-3.7-0.1-5.6c0-0.5-0.2-0.8-0.6-1C134.9,35,132,33,128.9,30.9z M128.3,34.6c-0.1,0-0.1,0-0.2,0
						c-0.5,3.3-1,6.7-1.5,10s-0.5,3.3,2.8,3.2c0.3,0,0.5,0,0.8,0c0.7,0,1-0.4,0.9-1.1C130.2,42.7,129.3,38.7,128.3,34.6z M93.8,50.9
						c0.4,2,0.9,3.9,1.3,5.8c0.3,1.5,1.7,0,2.3,0.8c0,0,0.2,0.3,0.4,0.1c0-0.1,0-0.2,0.1-0.2c0.4-2.1,0.8-4.3,1.2-6.4
						C97.2,50.9,95.5,50.9,93.8,50.9z M139.8,38.4c0,1.9,0,3.6,0,5.3c0,0.3,0,0.6,0.4,0.6c2.6,0,5.1,0,8,0
						C145.3,42.2,142.6,40.4,139.8,38.4z M129.2,53c1.1,0,2.2,0,3.3,0c0.6,0,0.8-0.2,0.8-0.8c0-0.4,0-0.8,0-1.3
						c0.1-0.6-0.1-0.8-0.8-0.8c-2.2,0-4.3,0-6.5,0c-0.3,0-0.6-0.1-0.8,0.4c-0.5,1.7,0.1,2.4,1.8,2.4C127.7,53,128.4,53,129.2,53z
						 M104.4,42.5c1.1,1.4,2.1,2.7,3.2,3.9c0.2,0.2,0.5,0.4,0.8,0.2c1.7-1.3,3.3-2.6,5.2-4.1C110.3,42.5,107.4,42.5,104.4,42.5z
						 M85.1,42.5c1.1,1.3,2.1,2.5,3,3.7c0.1,0.2,0.4,0.2,0.6,0c1.5-1.2,3-2.4,4.7-3.7C90.5,42.5,88,42.5,85.1,42.5z M94.9,42.5
						c1,1.2,1.9,2.3,2.7,3.3c0.2,0.2,0.3,0.6,0.7,0.3c1.4-1.1,2.8-2.3,4.4-3.5C100,42.5,97.6,42.5,94.9,42.5z M152.6,48.2
						c0-0.3,0-0.7,0-1c0.2-1-0.2-1.3-1.3-1.3c-1.2,0-1.3,0.5-1.3,1.4c0.1,0.8,0,1.5,0,2.3c0,0.4,0,0.7,0.5,0.9c1.4,0.4,2,0,2-1.5
						C152.6,48.7,152.6,48.5,152.6,48.2z M148.6,48.2c0-0.5,0-1.1,0-1.7c0-1.1-0.9-0.5-1.3-0.6c-0.4-0.1-1.1-0.2-1,0.7
						c0,1.1,0,2.1,0,3.2c0,0.3-0.1,0.5,0.4,0.7c1.4,0.4,2,0,2-1.5C148.6,48.7,148.6,48.4,148.6,48.2z M113.8,42.5
						c0.8,1,1.4,1.8,2.1,2.5c0.1,0.2,0.3,0.7,0.7,0.4c1.2-0.9,2.3-1.8,3.6-2.9C117.9,42.5,116,42.5,113.8,42.5z M129,59.5
						c0.8-0.9,1.4-1.8,1.8-2.8c0.1-0.3,0.5-0.8-0.3-0.9c-1.3,0-2.5,0-4,0C127.4,57.1,128.1,58.3,129,59.5z M126.4,85.4
						c0.4,1.1,1.3,1.7,1.9,2.4c0.3,0.3,0.4,0.2,0.6,0c0.7-0.8,1.5-1.4,2.1-2.4C129.4,85.4,127.9,85.4,126.4,85.4z M131,121.3
						c-1.6,0-3.1,0-4.5,0c1.4,2.8,2.1,2.9,4,0.6C130.6,121.8,130.7,121.6,131,121.3z M128.3,115c0.4-1.1,1.8-1.7,1.4-2.3
						c-0.4-0.7-1.8-0.3-2.7-0.3c-0.2,0-0.4-0.1-0.7,0.3C126.9,113.3,127.5,114.1,128.3,115z M122,47c-0.6-0.7-1-1.2-1.5-1.8
						c-0.1-0.2-0.3-0.6-0.7-0.2c-0.7,0.6-1.3,1.2-2.2,2C119.3,47,120.6,47,122,47z M105.1,46.5c-0.6-0.7-1-1.2-1.5-1.7
						c-0.2-0.3-0.4-0.5-0.8-0.1c-0.6,0.6-1.2,1.1-2,1.8C102.3,46.5,103.6,46.5,105.1,46.5z M130.1,76.7c-1.4,0-2.6,0-3.9,0
						c0.7,0.8,1.2,1.7,2,2.3C128.8,78.3,129.4,77.6,130.1,76.7z M91.7,46.4c1.3,0,2.5,0,3.7,0C93.5,43.9,94.1,44,91.7,46.4z
						 M130.1,103.2c-1-0.1-2.1-0.1-3.3-0.2c0.6,1,1.1,2.1,1.8,2.3c0.5,0.1,1.1-1.1,1.5-1.8C130.1,103.3,130.1,103.3,130.1,103.2z
						 M128.6,69.7c0.5-0.9,1.2-1.4,1.6-2.4c-1.2,0-2.2,0-3.4,0C127.4,68.1,128,68.8,128.6,69.7z M85.5,46.5c-1.8-2.3-2.2-2.3-3.7,0
						C83,46.5,84.2,46.5,85.5,46.5z M126.5,58.8c0,1.5,0,2.9,0,4.4C128.2,61,128.2,60.9,126.5,58.8z M126.4,99
						c1.7-1.9,1.7-2.6,0-4.3C126.4,96.1,126.4,97.5,126.4,99z M111.3,46.8c1.1,0,2.2,0,3.2,0C113,44.5,113.3,44.7,111.3,46.8z
						 M129.9,110.4c-0.4-0.8-0.8-1.4-1.4-1.9c-0.5,0.6-0.9,1.2-1.5,1.9C128,110.4,128.9,110.4,129.9,110.4z M129,98.6
						c-0.5,0.8-1,1.4-1.5,2.2c1,0,1.8,0,2.9,0C129.8,100,129.5,99.4,129,98.6z M129,62.8c-0.5,0.7-0.9,1.3-1.5,2.1c1,0,1.8,0,2.7,0
						C129.9,64.1,129.5,63.5,129,62.8z M129.9,74.6c-0.5-0.8-0.8-1.8-1.4-1.7c-0.5,0.1-1,1-1.4,1.7
						C128.1,74.6,128.9,74.6,129.9,74.6z M126.7,119.4c0.6,0,1.1,0,1.5,0c0.4,0,0.8,0.2,1.3-0.3c-0.5-0.4-0.7-1.4-1.3-1.4
						C127.6,117.8,127.1,118.6,126.7,119.4z M130.9,114.7c-1.9,1.7-1.9,1.4,0,3.1C130.9,116.8,130.9,115.8,130.9,114.7z M130.9,82.1
						c0-1.1,0-2.1,0-3.2C129.1,80.6,129,80.3,130.9,82.1z M126.8,83.4c0.9,0,1.7,0,2.7,0c-0.5-0.7-0.9-1.2-1.3-1.7
						C127.7,82.3,127.2,82.7,126.8,83.4z M131,72.7c0-1.1,0-1.9,0-2.9C129.5,71.2,129.5,71.3,131,72.7z M131,105.6
						c-1.5,1.3-1.5,1.9,0,2.7C131,107.5,131,106.7,131,105.6z M129.1,95.3c0.2-0.6,1.1-1.1,0.7-1.6c-0.3-0.4-1.2-0.2-1.9,0
						C128.3,94.3,128.5,94.9,129.1,95.3z M127.4,92.1c0.8,0,1.5,0,2.3,0C128.8,90.4,128.6,90.4,127.4,92.1z M126.5,72.2
						c1.2-1,1.2-1.4,0-2.5C126.5,70.6,126.5,71.4,126.5,72.2z M126.5,105.6c0,0.8,0,1.6,0,2.4C127.7,107,127.7,106.6,126.5,105.6z
						 M126.4,90.3c1.3-1.1,1.3-1.4,0-2.1C126.4,88.9,126.4,89.6,126.4,90.3z M130.9,88.3c-0.7,0.8-1.4,1.5,0,2
						C130.9,89.8,130.9,89.2,130.9,88.3z M130.9,60.3c-1,0.7-0.8,1.2,0,1.8C130.9,61.5,130.9,61,130.9,60.3z M130.9,96.2
						c-1,0.7-0.7,1.2,0,1.8C130.9,97.4,130.9,96.8,130.9,96.2z M126.4,81c0.9-0.5,0.7-0.9,0-1.4C126.4,80.1,126.4,80.5,126.4,81z
						 M126.4,116.9c0.8-0.8,0.8-0.8,0-1.4C126.4,115.9,126.4,116.3,126.4,116.9z"/>
				</g>
			</g>
		</g>
	</g>
</g>
<g id="RIBBON_1_" class="st2">
	<g class="st3">
		<g>
			<polygon points="159.4,230.6 154.6,230.6 146.7,223.5 151.5,223.5 			"/>
			<polygon points="168.6,230.6 163.7,230.6 155.8,223.5 160.7,223.5 			"/>
			<polygon points="177.7,230.6 172.9,230.6 165,223.5 169.8,223.5 			"/>
			<polygon points="186.8,230.6 182,230.6 174.1,223.5 179,223.5 			"/>
			<polygon points="196,230.6 191.1,230.6 183.2,223.5 188.1,223.5 			"/>
			<polygon points="205.1,230.6 200.3,230.6 192.4,223.5 197.2,223.5 			"/>
			<polygon points="214.2,230.6 209.4,230.6 201.5,223.5 206.4,223.5 			"/>
			<polygon points="223.4,230.6 218.5,230.6 210.6,223.5 215.5,223.5 			"/>
			<polygon points="232.5,230.6 227.7,230.6 219.8,223.5 224.6,223.5 			"/>
		</g>
		<g>
			<polygon points="241.8,230.6 237,230.6 229.1,223.5 233.9,223.5 			"/>
			<polygon points="251,230.6 246.1,230.6 238.2,223.5 243.1,223.5 			"/>
			<polygon points="260.1,230.6 255.3,230.6 247.4,223.5 252.2,223.5 			"/>
			<polygon points="269.2,230.6 264.4,230.6 256.5,223.5 261.3,223.5 			"/>
			<polygon points="278.4,230.6 273.5,230.6 265.6,223.5 270.5,223.5 			"/>
			<polygon points="287.5,230.6 282.7,230.6 274.8,223.5 279.6,223.5 			"/>
			<polygon points="296.6,230.6 291.8,230.6 283.9,223.5 288.8,223.5 			"/>
			<polygon points="305.8,230.6 300.9,230.6 293,223.5 297.9,223.5 			"/>
			<polygon points="314.9,230.6 310.1,230.6 302.2,223.5 307,223.5 			"/>
		</g>
	</g>
	<g class="st3">
		<g>
			<polygon points="-5.3,230.6 -10.2,230.6 -18.1,223.5 -13.2,223.5 			"/>
			<polygon points="3.8,230.6 -1.1,230.6 -9,223.5 -4.1,223.5 			"/>
			<polygon points="12.9,230.6 8.1,230.6 0.2,223.5 5,223.5 			"/>
			<polygon points="22.1,230.6 17.2,230.6 9.3,223.5 14.2,223.5 			"/>
			<polygon points="31.2,230.6 26.3,230.6 18.4,223.5 23.3,223.5 			"/>
			<polygon points="40.3,230.6 35.5,230.6 27.6,223.5 32.4,223.5 			"/>
			<polygon points="49.5,230.6 44.6,230.6 36.7,223.5 41.6,223.5 			"/>
			<polygon points="58.6,230.6 53.7,230.6 45.8,223.5 50.7,223.5 			"/>
			<polygon points="67.7,230.6 62.9,230.6 55,223.5 59.8,223.5 			"/>
			<g>
				<polygon points="-5.3,230.6 -10.2,230.6 -18.1,223.5 -13.2,223.5 				"/>
			</g>
			<g>
				<polygon points="-9,223.5 -4.1,223.5 3.8,230.6 				"/>
			</g>
			<g>
				<polygon points="12.9,230.6 8.1,230.6 0.2,223.5 5,223.5 				"/>
			</g>
			<g>
				<polygon points="22.1,230.6 17.2,230.6 9.3,223.5 14.2,223.5 				"/>
			</g>
			<g>
				<polygon points="31.2,230.6 26.3,230.6 18.4,223.5 23.3,223.5 				"/>
			</g>
			<g>
				<polygon points="40.3,230.6 35.5,230.6 27.6,223.5 32.4,223.5 				"/>
			</g>
			<g>
				<polygon points="49.5,230.6 44.6,230.6 36.7,223.5 41.6,223.5 				"/>
			</g>
			<g>
				<polygon points="58.6,230.6 53.7,230.6 45.8,223.5 50.7,223.5 				"/>
			</g>
			<g>
				<polygon points="67.7,230.6 62.9,230.6 55,223.5 59.8,223.5 				"/>
			</g>
		</g>
		<g>
			<g>
				<polygon points="77,230.6 72.2,230.6 64.3,223.5 69.2,223.5 				"/>
			</g>
			<g>
				<polygon points="86.2,230.6 81.3,230.6 73.4,223.5 78.3,223.5 				"/>
			</g>
			<g>
				<polygon points="95.3,230.6 90.5,230.6 82.6,223.5 87.4,223.5 				"/>
			</g>
			<g>
				<polygon points="104.4,230.6 99.6,230.6 91.7,223.5 96.6,223.5 				"/>
			</g>
			<g>
				<polygon points="113.6,230.6 108.7,230.6 100.8,223.5 105.7,223.5 				"/>
			</g>
			<g>
				<polygon points="122.7,230.6 117.9,230.6 110,223.5 114.8,223.5 				"/>
			</g>
			<g>
				<polygon points="131.9,230.6 127,230.6 119.1,223.5 124,223.5 				"/>
			</g>
			<g>
				<polygon points="141,230.6 136.1,230.6 128.2,223.5 133.1,223.5 				"/>
			</g>
			<g>
				<polygon points="150.1,230.6 145.3,230.6 137.4,223.5 142.2,223.5 				"/>
			</g>
		</g>
	</g>
</g>
<g id="HEALTH_AND_SAFETY">
	<path class="st0" d="M0,247.8v-13.4h2.4v5.3h6.3v-5.3H11v13.4H8.7v-5.9H2.4v5.9H0L0,247.8z"/>
	<path class="st0" d="M22.6,244h-6.9c0.1,0.7,0.3,1.2,0.8,1.6c0.5,0.4,1,0.6,1.6,0.6c1,0,1.8-0.4,2.4-1.2l1.6,1.2
		c-1,1.2-2.3,1.8-3.8,1.8c-1.4,0-2.6-0.4-3.5-1.3c-0.9-0.9-1.4-2-1.4-3.4s0.5-2.5,1.4-3.4s2.1-1.3,3.5-1.3c1.3,0,2.3,0.4,3.1,1.3
		c0.8,0.9,1.2,2.1,1.2,3.6C22.6,243.4,22.6,244,22.6,244z M15.6,242.3h4.7c0-0.7-0.2-1.2-0.6-1.6c-0.4-0.4-1-0.6-1.7-0.6
		s-1.2,0.2-1.6,0.6C16,241.1,15.7,241.7,15.6,242.3z"/>
	<path class="st0" d="M30.4,247.8v-1.3h-0.1c-0.6,1-1.6,1.5-2.9,1.5c-0.9,0-1.7-0.2-2.3-0.7c-0.6-0.5-1-1.1-1-2
		c0-0.5,0.1-0.9,0.3-1.3c0.2-0.4,0.4-0.6,0.7-0.9c0.3-0.2,0.7-0.4,1-0.5c0.4-0.1,0.8-0.3,1.2-0.3c0.5-0.1,0.9-0.1,1.3-0.1
		s0.8,0,1.2,0h0.6V242c0-0.5-0.2-1-0.6-1.3s-0.9-0.4-1.5-0.4c-0.9,0-1.8,0.3-2.4,0.9l-1.2-1.2c1-1,2.2-1.5,3.9-1.5
		c0.5,0,1,0.1,1.4,0.2c0.4,0.1,0.8,0.3,1,0.4c0.3,0.2,0.5,0.4,0.7,0.6s0.3,0.5,0.4,0.7c0.1,0.2,0.2,0.5,0.2,0.8
		c0.1,0.3,0.1,0.6,0.1,0.7c0,0.2,0,0.4,0,0.6v5.2L30.4,247.8C30.4,247.7,30.4,247.8,30.4,247.8z M30.2,244.2v-0.5h-0.5
		c-2.3,0-3.4,0.5-3.4,1.4c0,0.4,0.2,0.7,0.5,0.9s0.7,0.3,1.1,0.3c0.8,0,1.3-0.2,1.7-0.5C30,245.4,30.2,244.9,30.2,244.2z"/>
	<path class="st0" d="M34.9,247.8v-14.3h2.3v14.3H34.9z"/>
	<path class="st0" d="M40.6,240.6h-1.9v-1.9h1.9v-2.6h2.3v2.6h2.5v1.9h-2.5v4c0,0.5,0.1,0.9,0.3,1.1c0.2,0.2,0.5,0.4,1,0.4
		c0.6,0,1-0.1,1.2-0.3v1.9c-0.4,0.2-1,0.3-1.8,0.3c-1.1,0-1.9-0.3-2.4-0.8c-0.4-0.5-0.6-1.3-0.6-2.5V240.6L40.6,240.6z"/>
	<path class="st0" d="M49.4,233.5v6.5l0,0c0.2-0.4,0.5-0.8,1-1.1s1-0.4,1.7-0.4c1.1,0,2,0.3,2.5,1s0.8,1.5,0.8,2.6v5.7h-2.3v-4.6
		c0-0.3,0-0.6,0-0.9c0-0.2-0.1-0.5-0.2-0.8c-0.1-0.3-0.3-0.5-0.5-0.7s-0.5-0.3-0.9-0.3c-0.7,0-1.2,0.2-1.6,0.6
		c-0.3,0.4-0.5,1-0.5,1.7v5h-2.3v-14.3H49.4z"/>
	<path class="st0" d="M69.3,247.8v-1.3h-0.1c-0.6,1-1.6,1.5-2.9,1.5c-0.9,0-1.7-0.2-2.3-0.7c-0.6-0.5-1-1.1-1-2
		c0-0.5,0.1-0.9,0.3-1.3c0.2-0.4,0.4-0.6,0.7-0.9c0.3-0.2,0.7-0.4,1-0.5c0.4-0.1,0.8-0.3,1.2-0.3c0.5-0.1,0.9-0.1,1.3-0.1
		s0.8,0,1.2,0h0.6V242c0-0.5-0.2-1-0.6-1.3s-0.9-0.4-1.5-0.4c-0.9,0-1.8,0.3-2.4,0.9l-1.2-1.2c1-1,2.2-1.5,3.9-1.5
		c0.5,0,1,0.1,1.4,0.2c0.4,0.1,0.8,0.3,1,0.4c0.3,0.2,0.5,0.4,0.7,0.6c0.2,0.3,0.3,0.5,0.4,0.7s0.2,0.5,0.2,0.8
		c0.1,0.3,0.1,0.6,0.1,0.7c0,0.2,0,0.4,0,0.6v5.2L69.3,247.8L69.3,247.8z M69.2,244.2v-0.5h-0.5c-2.3,0-3.4,0.5-3.4,1.4
		c0,0.4,0.2,0.7,0.5,0.9s0.7,0.3,1.1,0.3c0.8,0,1.3-0.2,1.7-0.5C69,245.4,69.2,244.9,69.2,244.2z"/>
	<path class="st0" d="M73.8,247.8v-9.1H76v1.5l0,0c0.5-1.1,1.4-1.7,2.8-1.7c1.1,0,2,0.3,2.5,1s0.8,1.5,0.8,2.6v5.7h-2.3v-4.6
		c0-0.3,0-0.6,0-0.9c0-0.2-0.1-0.5-0.2-0.8s-0.3-0.5-0.5-0.7s-0.5-0.3-0.9-0.3c-0.7,0-1.2,0.2-1.6,0.6c-0.3,0.4-0.5,1-0.5,1.7v5
		C76.1,247.8,73.8,247.8,73.8,247.8z"/>
	<path class="st0" d="M91.8,247.8v-1.4l0,0c-0.6,1.1-1.7,1.6-3.1,1.6s-2.5-0.5-3.3-1.4s-1.2-2-1.2-3.4s0.4-2.5,1.2-3.4
		c0.8-0.9,1.9-1.4,3.2-1.4c1.3,0,2.3,0.5,3.1,1.4h0.1v-6.4H94v14.3L91.8,247.8L91.8,247.8z M87.2,241.3c-0.5,0.5-0.7,1.2-0.7,1.9
		s0.2,1.4,0.7,1.9s1.1,0.8,1.9,0.8s1.5-0.3,1.9-0.8c0.5-0.5,0.7-1.2,0.7-1.9s-0.2-1.4-0.7-1.9s-1.1-0.8-1.9-0.8
		C88.3,240.5,87.7,240.8,87.2,241.3z"/>
	<path class="st0" d="M110.7,235.4l-1.7,1.8c-0.5-0.7-1.3-1.1-2.4-1.1c-0.6,0-1.1,0.1-1.5,0.4c-0.4,0.3-0.6,0.7-0.6,1.3
		c0,0.4,0.2,0.8,0.5,1c0.3,0.3,0.7,0.5,1.2,0.6s1,0.3,1.5,0.5c0.6,0.2,1.1,0.4,1.5,0.7c0.5,0.2,0.9,0.6,1.2,1.2
		c0.3,0.5,0.5,1.2,0.5,1.9c0,1.4-0.5,2.4-1.4,3.2c-0.9,0.7-2.1,1.1-3.5,1.1c-1.9,0-3.4-0.6-4.4-1.8l1.8-1.7c0.6,0.9,1.5,1.4,2.6,1.4
		c0.6,0,1.1-0.2,1.6-0.5s0.7-0.8,0.7-1.4c0-0.4-0.1-0.7-0.4-1c-0.2-0.3-0.5-0.5-0.9-0.7s-0.8-0.3-1.2-0.4c-0.5-0.1-0.9-0.3-1.4-0.5
		s-0.9-0.4-1.2-0.7c-0.4-0.3-0.7-0.6-0.9-1.1c-0.2-0.5-0.4-1-0.4-1.7c0-1.3,0.5-2.3,1.5-3s2.1-1.1,3.5-1.1
		C108.4,234,109.7,234.5,110.7,235.4z"/>
	<path class="st0" d="M118.7,247.8v-1.3h-0.1c-0.6,1-1.6,1.5-2.9,1.5c-0.9,0-1.7-0.2-2.3-0.7c-0.6-0.5-1-1.1-1-2
		c0-0.5,0.1-0.9,0.3-1.3c0.2-0.4,0.4-0.6,0.7-0.9c0.3-0.2,0.7-0.4,1-0.5c0.4-0.1,0.8-0.3,1.2-0.3c0.5-0.1,0.9-0.1,1.3-0.1
		s0.8,0,1.2,0h0.6V242c0-0.5-0.2-1-0.6-1.3s-0.9-0.4-1.5-0.4c-0.9,0-1.8,0.3-2.4,0.9L113,240c1-1,2.2-1.5,3.9-1.5
		c0.5,0,1,0.1,1.4,0.2c0.4,0.1,0.8,0.3,1,0.4c0.3,0.2,0.5,0.4,0.7,0.6c0.2,0.3,0.3,0.5,0.4,0.7s0.2,0.5,0.2,0.8
		c0.1,0.3,0.1,0.6,0.1,0.7c0,0.2,0,0.4,0,0.6v5.2L118.7,247.8L118.7,247.8L118.7,247.8z M118.6,244.2v-0.5h-0.5
		c-2.3,0-3.4,0.5-3.4,1.4c0,0.4,0.2,0.7,0.5,0.9s0.7,0.3,1.1,0.3c0.8,0,1.3-0.2,1.7-0.5C118.4,245.4,118.6,244.9,118.6,244.2z"/>
	<path class="st0" d="M124,247.8v-7.2h-1.9v-1.9h1.9v-1.3c0-1.4,0.2-2.4,0.7-3.1c0.5-0.7,1.4-1,2.7-1c0.5,0,1,0,1.4,0.1l-0.2,1.9
		c-0.4-0.1-0.7-0.1-0.9-0.1c-0.6,0-1,0.2-1.2,0.5s-0.3,0.8-0.3,1.4v1.6h2.1v1.9h-2.1v7.2L124,247.8L124,247.8z"/>
	<path class="st0" d="M138.6,244h-6.9c0.1,0.7,0.3,1.2,0.8,1.6c0.5,0.4,1,0.6,1.6,0.6c1,0,1.8-0.4,2.4-1.2l1.6,1.2
		c-1,1.2-2.3,1.8-3.8,1.8c-1.4,0-2.6-0.4-3.5-1.3c-0.9-0.9-1.4-2-1.4-3.4s0.5-2.5,1.4-3.4s2.1-1.3,3.5-1.3c1.3,0,2.3,0.4,3.1,1.3
		c0.8,0.9,1.2,2.1,1.2,3.6L138.6,244L138.6,244z M131.7,242.3h4.7c0-0.7-0.2-1.2-0.6-1.6c-0.4-0.4-1-0.6-1.7-0.6s-1.2,0.2-1.6,0.6
		C132,241.1,131.8,241.7,131.7,242.3z"/>
	<path class="st0" d="M141.5,240.6h-1.9v-1.9h1.9v-2.6h2.3v2.6h2.5v1.9h-2.5v4c0,0.5,0.1,0.9,0.3,1.1c0.2,0.2,0.5,0.4,1,0.4
		c0.6,0,1-0.1,1.2-0.3v1.9c-0.4,0.2-1,0.3-1.8,0.3c-1.1,0-1.9-0.3-2.4-0.8c-0.4-0.5-0.6-1.3-0.6-2.5V240.6L141.5,240.6z"/>
	<path class="st0" d="M150.8,247.8l-3.9-9.2h2.5l2.5,6.3l0,0l2.3-6.3h2.4l-4.3,11c-0.4,0.9-0.8,1.6-1.3,2s-1.2,0.6-2.2,0.6
		c-0.6,0-1.2-0.1-1.7-0.2l0.3-2c0.4,0.2,0.8,0.2,1.2,0.2c0.5,0,0.9-0.1,1.1-0.3c0.2-0.2,0.5-0.5,0.7-1.1L150.8,247.8z"/>
	<path class="st0" d="M163.7,236.6c-0.3-0.3-0.4-0.6-0.4-1s0.1-0.7,0.4-1c0.3-0.3,0.6-0.4,1-0.4s0.8,0.1,1.1,0.4s0.4,0.6,0.4,1
		s-0.1,0.7-0.4,1c-0.3,0.3-0.6,0.4-1.1,0.4C164.3,237,163.9,236.8,163.7,236.6z M163.6,247.8v-9.1h2.3v9.1H163.6z"/>
	<path class="st0" d="M168.4,247.8v-9.1h2.2v1.5l0,0c0.5-1.1,1.4-1.7,2.8-1.7c1.1,0,2,0.3,2.5,1s0.8,1.5,0.8,2.6v5.7h-2.3v-4.6
		c0-0.3,0-0.6,0-0.9c0-0.2-0.1-0.5-0.2-0.8c-0.1-0.3-0.3-0.5-0.5-0.7s-0.5-0.3-0.9-0.3c-0.7,0-1.2,0.2-1.6,0.6
		c-0.3,0.4-0.5,1-0.5,1.7v5H168.4z"/>
	<path class="st0" d="M196.2,236.1l-1.9,1.4c-0.8-0.9-1.8-1.3-2.8-1.3c-1.4,0-2.5,0.5-3.3,1.4c-0.9,0.9-1.3,2.1-1.3,3.4
		c0,1.5,0.4,2.6,1.3,3.6c0.9,0.9,2,1.4,3.3,1.4c1.2,0,2.2-0.5,3-1.6l2,1.4c-1.2,1.6-2.8,2.4-5,2.4c-2.1,0-3.8-0.6-5.1-1.9
		c-1.3-1.3-2-3-2-5.1s0.7-3.8,2-5.2c1.3-1.3,3-1.9,5.1-1.9C193.4,234,195,234.7,196.2,236.1z"/>
	<path class="st0" d="M198.8,246.7c-0.9-0.9-1.4-2-1.4-3.4s0.5-2.5,1.4-3.4s2.1-1.3,3.5-1.3s2.6,0.4,3.5,1.3c0.9,0.9,1.4,2,1.4,3.4
		s-0.5,2.5-1.4,3.4s-2.1,1.3-3.5,1.3S199.8,247.6,198.8,246.7z M200.4,241.3c-0.5,0.5-0.7,1.2-0.7,1.9s0.2,1.4,0.7,1.9
		s1.1,0.8,1.9,0.8c0.8,0,1.5-0.3,1.9-0.8c0.5-0.5,0.7-1.2,0.7-1.9s-0.2-1.4-0.7-1.9s-1.1-0.8-1.9-0.8
		C201.6,240.5,200.9,240.8,200.4,241.3z"/>
	<path class="st0" d="M209.4,247.8v-9.1h2.2v1.5l0,0c0.5-1.1,1.4-1.7,2.8-1.7c1.1,0,2,0.3,2.5,1s0.8,1.5,0.8,2.6v5.7h-2.3v-4.6
		c0-0.3,0-0.6,0-0.9c0-0.2-0.1-0.5-0.2-0.8c-0.1-0.3-0.3-0.5-0.5-0.7s-0.5-0.3-0.9-0.3c-0.7,0-1.2,0.2-1.6,0.6
		c-0.3,0.4-0.5,1-0.5,1.7v5H209.4z"/>
	<path class="st0" d="M226.7,239.8l-1.5,1.4c-0.4-0.6-1-0.9-1.8-0.9c-0.3,0-0.6,0.1-0.9,0.2s-0.4,0.4-0.4,0.7s0.2,0.5,0.5,0.7
		s0.7,0.3,1.2,0.4c0.5,0.1,1,0.2,1.5,0.4s0.9,0.4,1.2,0.8c0.3,0.4,0.5,0.9,0.5,1.6c0,1-0.4,1.7-1.2,2.2s-1.7,0.7-2.8,0.7
		c-1.5,0-2.7-0.5-3.5-1.4l1.5-1.4c0.7,0.7,1.4,1.1,2.2,1.1c0.4,0,0.7-0.1,1-0.3s0.5-0.4,0.5-0.8c0-0.3-0.2-0.6-0.5-0.8
		s-0.7-0.3-1.2-0.4c-0.5-0.1-1-0.2-1.5-0.4c-0.5-0.1-0.9-0.4-1.2-0.8c-0.3-0.4-0.5-0.9-0.5-1.5c0-0.9,0.4-1.7,1.1-2.2
		s1.6-0.8,2.6-0.8C224.9,238.5,226,238.9,226.7,239.8z"/>
	<path class="st0" d="M229.5,240.6h-1.9v-1.9h1.9v-2.6h2.3v2.6h2.5v1.9h-2.5v4c0,0.5,0.1,0.9,0.3,1.1c0.2,0.2,0.5,0.4,1,0.4
		c0.6,0,1-0.1,1.2-0.3v1.9c-0.4,0.2-1,0.3-1.8,0.3c-1.1,0-1.9-0.3-2.4-0.8c-0.4-0.5-0.6-1.3-0.6-2.5V240.6L229.5,240.6z"/>
	<path class="st0" d="M236.1,247.8v-9.1h2.3v1.4l0,0c0.3-0.5,0.6-0.9,1.1-1.2s1-0.4,1.6-0.4c0.2,0,0.5,0,0.8,0.1v2.2
		c-0.5-0.1-0.8-0.2-1.1-0.2c-0.5,0-0.9,0.1-1.3,0.3s-0.6,0.4-0.8,0.7s-0.3,0.5-0.3,0.7c-0.1,0.2-0.1,0.4-0.1,0.6v4.9H236.1z"/>
	<path class="st0" d="M251.7,238.7v9.1h-2.2v-1.5l0,0c-0.5,1.1-1.4,1.7-2.8,1.7c-1.1,0-2-0.3-2.5-1s-0.8-1.5-0.8-2.6v-5.7h2.3v4.6
		c0,0.3,0,0.6,0,0.9c0,0.2,0.1,0.5,0.2,0.8c0.1,0.3,0.3,0.5,0.5,0.7s0.5,0.3,0.9,0.3c0.7,0,1.2-0.2,1.6-0.7c0.3-0.4,0.5-1,0.5-1.7
		v-5L251.7,238.7L251.7,238.7L251.7,238.7z"/>
	<path class="st0" d="M262.1,239.8l-1.6,1.6c-0.6-0.6-1.2-0.9-1.7-0.9c-0.8,0-1.5,0.3-1.9,0.8c-0.5,0.5-0.7,1.2-0.7,1.9
		s0.2,1.4,0.7,1.9s1.1,0.8,1.9,0.8c0.7,0,1.3-0.3,1.8-0.9l1.5,1.6c-0.4,0.4-0.9,0.7-1.6,0.9c-0.6,0.2-1.2,0.3-1.7,0.3
		c-1.4,0-2.6-0.4-3.5-1.3c-0.9-0.9-1.4-2-1.4-3.4s0.5-2.5,1.4-3.4s2.1-1.3,3.5-1.3C260.2,238.5,261.2,238.9,262.1,239.8z"/>
	<path class="st0" d="M264.2,240.6h-1.9v-1.9h1.9v-2.6h2.3v2.6h2.5v1.9h-2.5v4c0,0.5,0.1,0.9,0.3,1.1c0.2,0.2,0.5,0.4,1,0.4
		c0.6,0,1-0.1,1.2-0.3v1.9c-0.4,0.2-1,0.3-1.8,0.3c-1.1,0-1.9-0.3-2.4-0.8c-0.4-0.5-0.6-1.3-0.6-2.5V240.6L264.2,240.6z"/>
	<path class="st0" d="M270.9,236.6c-0.3-0.3-0.4-0.6-0.4-1s0.1-0.7,0.4-1s0.6-0.4,1-0.4s0.8,0.1,1.1,0.4c0.3,0.3,0.4,0.6,0.4,1
		s-0.1,0.7-0.4,1s-0.6,0.4-1.1,0.4C271.5,237,271.2,236.8,270.9,236.6z M270.8,247.8v-9.1h2.3v9.1H270.8z"/>
	<path class="st0" d="M276.7,246.7c-0.9-0.9-1.4-2-1.4-3.4s0.5-2.5,1.4-3.4s2.1-1.3,3.5-1.3s2.6,0.4,3.5,1.3c0.9,0.9,1.4,2,1.4,3.4
		s-0.5,2.5-1.4,3.4s-2.1,1.3-3.5,1.3S277.6,247.6,276.7,246.7z M278.3,241.3c-0.5,0.5-0.7,1.2-0.7,1.9s0.2,1.4,0.7,1.9
		s1.1,0.8,1.9,0.8s1.5-0.3,1.9-0.8c0.5-0.5,0.7-1.2,0.7-1.9s-0.2-1.4-0.7-1.9s-1.1-0.8-1.9-0.8S278.7,240.8,278.3,241.3z"/>
	<path class="st0" d="M287.3,247.8v-9.1h2.2v1.5l0,0c0.5-1.1,1.4-1.7,2.8-1.7c1.1,0,2,0.3,2.5,1s0.8,1.5,0.8,2.6v5.7h-2.3v-4.6
		c0-0.3,0-0.6,0-0.9c0-0.2-0.1-0.5-0.2-0.8s-0.3-0.5-0.5-0.7s-0.5-0.3-0.9-0.3c-0.7,0-1.2,0.2-1.6,0.6c-0.3,0.4-0.5,1-0.5,1.7v5
		C289.5,247.8,287.3,247.8,287.3,247.8z"/>
</g>
<g id="RIBBON">
	<g>
		<g>
			
				<linearGradient id="SVGID_3_" gradientUnits="userSpaceOnUse" x1="148.4566" y1="65.8235" x2="155.4827" y2="56.136" gradientTransform="matrix(1 0 0 -1 0 285.8568)">
				<stop  offset="0" style="stop-color:#F36F21"/>
				<stop  offset="0.968" style="stop-color:#F99B1C"/>
				<stop  offset="1" style="stop-color:#F99D1C"/>
			</linearGradient>
			<polygon class="st4" points="157.7,228.1 153.3,228.1 146.2,221.6 150.6,221.6 			"/>
			
				<linearGradient id="SVGID_4_" gradientUnits="userSpaceOnUse" x1="156.6979" y1="65.8354" x2="163.7241" y2="56.1479" gradientTransform="matrix(1 0 0 -1 0 285.8568)">
				<stop  offset="0" style="stop-color:#F36F21"/>
				<stop  offset="0.968" style="stop-color:#F99B1C"/>
				<stop  offset="1" style="stop-color:#F99D1C"/>
			</linearGradient>
			<polygon class="st5" points="165.9,228.1 161.6,228.1 154.5,221.6 158.8,221.6 			"/>
			
				<linearGradient id="SVGID_5_" gradientUnits="userSpaceOnUse" x1="164.9424" y1="65.843" x2="171.9685" y2="56.1555" gradientTransform="matrix(1 0 0 -1 0 285.8568)">
				<stop  offset="0" style="stop-color:#F36F21"/>
				<stop  offset="0.968" style="stop-color:#F99B1C"/>
				<stop  offset="1" style="stop-color:#F99D1C"/>
			</linearGradient>
			<polygon class="st6" points="174.2,228.1 169.8,228.1 162.7,221.6 167.1,221.6 			"/>
			
				<linearGradient id="SVGID_6_" gradientUnits="userSpaceOnUse" x1="173.151" y1="65.8312" x2="180.1771" y2="56.1437" gradientTransform="matrix(1 0 0 -1 0 285.8568)">
				<stop  offset="0" style="stop-color:#F36F21"/>
				<stop  offset="0.968" style="stop-color:#F99B1C"/>
				<stop  offset="1" style="stop-color:#F99D1C"/>
			</linearGradient>
			<polygon class="st7" points="182.4,228.1 178,228.1 170.9,221.6 175.3,221.6 			"/>
			
				<linearGradient id="SVGID_7_" gradientUnits="userSpaceOnUse" x1="181.3596" y1="65.8192" x2="188.3889" y2="56.1275" gradientTransform="matrix(1 0 0 -1 0 285.8568)">
				<stop  offset="0" style="stop-color:#F36F21"/>
				<stop  offset="0.968" style="stop-color:#F99B1C"/>
				<stop  offset="1" style="stop-color:#F99D1C"/>
			</linearGradient>
			<polygon class="st8" points="190.6,228.1 186.3,228.1 179.1,221.6 183.5,221.6 			"/>
			
				<linearGradient id="SVGID_8_" gradientUnits="userSpaceOnUse" x1="189.6369" y1="65.8506" x2="196.663" y2="56.1631" gradientTransform="matrix(1 0 0 -1 0 285.8568)">
				<stop  offset="0" style="stop-color:#F36F21"/>
				<stop  offset="0.968" style="stop-color:#F99B1C"/>
				<stop  offset="1" style="stop-color:#F99D1C"/>
			</linearGradient>
			<polygon class="st9" points="198.9,228.1 194.5,228.1 187.4,221.6 191.8,221.6 			"/>
			
				<linearGradient id="SVGID_9_" gradientUnits="userSpaceOnUse" x1="197.8455" y1="65.8388" x2="204.8716" y2="56.1513" gradientTransform="matrix(1 0 0 -1 0 285.8568)">
				<stop  offset="0" style="stop-color:#F36F21"/>
				<stop  offset="0.968" style="stop-color:#F99B1C"/>
				<stop  offset="1" style="stop-color:#F99D1C"/>
			</linearGradient>
			<polygon class="st10" points="207.1,228.1 202.7,228.1 195.6,221.6 200,221.6 			"/>
			
				<linearGradient id="SVGID_10_" gradientUnits="userSpaceOnUse" x1="206.0572" y1="65.8227" x2="213.0833" y2="56.1352" gradientTransform="matrix(1 0 0 -1 0 285.8568)">
				<stop  offset="0" style="stop-color:#F36F21"/>
				<stop  offset="0.968" style="stop-color:#F99B1C"/>
				<stop  offset="1" style="stop-color:#F99D1C"/>
			</linearGradient>
			<polygon class="st11" points="215.3,228.1 210.9,228.1 203.8,221.6 208.2,221.6 			"/>
			
				<linearGradient id="SVGID_11_" gradientUnits="userSpaceOnUse" x1="214.2986" y1="65.8345" x2="221.3247" y2="56.147" gradientTransform="matrix(1 0 0 -1 0 285.8568)">
				<stop  offset="0" style="stop-color:#F36F21"/>
				<stop  offset="0.968" style="stop-color:#F99B1C"/>
				<stop  offset="1" style="stop-color:#F99D1C"/>
			</linearGradient>
			<polygon class="st12" points="223.5,228.1 219.2,228.1 212.1,221.6 216.4,221.6 			"/>
		</g>
		<g>
			
				<linearGradient id="SVGID_12_" gradientUnits="userSpaceOnUse" x1="222.6905" y1="65.8455" x2="229.7198" y2="56.1538" gradientTransform="matrix(1 0 0 -1 0 285.8568)">
				<stop  offset="0" style="stop-color:#F36F21"/>
				<stop  offset="0.968" style="stop-color:#F99B1C"/>
				<stop  offset="1" style="stop-color:#F99D1C"/>
			</linearGradient>
			<polygon class="st13" points="231.9,228.1 227.6,228.1 220.5,221.6 224.8,221.6 			"/>
			
				<linearGradient id="SVGID_13_" gradientUnits="userSpaceOnUse" x1="230.9417" y1="65.844" x2="237.9679" y2="56.1565" gradientTransform="matrix(1 0 0 -1 0 285.8568)">
				<stop  offset="0" style="stop-color:#F36F21"/>
				<stop  offset="0.968" style="stop-color:#F99B1C"/>
				<stop  offset="1" style="stop-color:#F99D1C"/>
			</linearGradient>
			<polygon class="st14" points="240.2,228.1 235.8,228.1 228.7,221.6 233.1,221.6 			"/>
			
				<linearGradient id="SVGID_14_" gradientUnits="userSpaceOnUse" x1="239.1503" y1="65.8321" x2="246.1765" y2="56.1446" gradientTransform="matrix(1 0 0 -1 0 285.8568)">
				<stop  offset="0" style="stop-color:#F36F21"/>
				<stop  offset="0.968" style="stop-color:#F99B1C"/>
				<stop  offset="1" style="stop-color:#F99D1C"/>
			</linearGradient>
			<polygon class="st15" points="248.4,228.1 244,228.1 236.9,221.6 241.3,221.6 			"/>
			
				<linearGradient id="SVGID_15_" gradientUnits="userSpaceOnUse" x1="247.3905" y1="65.8455" x2="254.4168" y2="56.158" gradientTransform="matrix(1 0 0 -1 0 285.8568)">
				<stop  offset="0" style="stop-color:#F36F21"/>
				<stop  offset="0.968" style="stop-color:#F99B1C"/>
				<stop  offset="1" style="stop-color:#F99D1C"/>
			</linearGradient>
			<polygon class="st16" points="256.6,228.1 252.3,228.1 245.2,221.6 249.5,221.6 			"/>
			
				<linearGradient id="SVGID_16_" gradientUnits="userSpaceOnUse" x1="255.6362" y1="65.8516" x2="262.6623" y2="56.1641" gradientTransform="matrix(1 0 0 -1 0 285.8568)">
				<stop  offset="0" style="stop-color:#F36F21"/>
				<stop  offset="0.968" style="stop-color:#F99B1C"/>
				<stop  offset="1" style="stop-color:#F99D1C"/>
			</linearGradient>
			<polygon class="st17" points="264.9,228.1 260.5,228.1 253.4,221.6 257.7,221.6 			"/>
			
				<linearGradient id="SVGID_17_" gradientUnits="userSpaceOnUse" x1="263.8448" y1="65.8397" x2="270.8741" y2="56.148" gradientTransform="matrix(1 0 0 -1 0 285.8568)">
				<stop  offset="0" style="stop-color:#F36F21"/>
				<stop  offset="0.968" style="stop-color:#F99B1C"/>
				<stop  offset="1" style="stop-color:#F99D1C"/>
			</linearGradient>
			<polygon class="st18" points="273.1,228.1 268.7,228.1 261.6,221.6 266,221.6 			"/>
			
				<linearGradient id="SVGID_18_" gradientUnits="userSpaceOnUse" x1="272.0565" y1="65.8236" x2="279.0826" y2="56.1361" gradientTransform="matrix(1 0 0 -1 0 285.8568)">
				<stop  offset="0" style="stop-color:#F36F21"/>
				<stop  offset="0.968" style="stop-color:#F99B1C"/>
				<stop  offset="1" style="stop-color:#F99D1C"/>
			</linearGradient>
			<polygon class="st19" points="281.3,228.1 276.9,228.1 269.8,221.6 274.2,221.6 			"/>
			
				<linearGradient id="SVGID_19_" gradientUnits="userSpaceOnUse" x1="280.2979" y1="65.8355" x2="287.3271" y2="56.1437" gradientTransform="matrix(1 0 0 -1 0 285.8568)">
				<stop  offset="0" style="stop-color:#F36F21"/>
				<stop  offset="0.968" style="stop-color:#F99B1C"/>
				<stop  offset="1" style="stop-color:#F99D1C"/>
			</linearGradient>
			<polygon class="st20" points="289.5,228.1 285.2,228.1 278.1,221.6 282.4,221.6 			"/>
			
				<linearGradient id="SVGID_20_" gradientUnits="userSpaceOnUse" x1="288.5424" y1="65.8431" x2="295.5685" y2="56.1556" gradientTransform="matrix(1 0 0 -1 0 285.8568)">
				<stop  offset="0" style="stop-color:#F36F21"/>
				<stop  offset="0.968" style="stop-color:#F99B1C"/>
				<stop  offset="1" style="stop-color:#F99D1C"/>
			</linearGradient>
			<polygon class="st21" points="297.8,228.1 293.4,228.1 286.3,221.6 290.7,221.6 			"/>
		</g>
	</g>
	<g>
		<g>
			
				<linearGradient id="SVGID_21_" gradientUnits="userSpaceOnUse" x1="3.447950e-02" y1="65.854" x2="7.0636" y2="56.1622" gradientTransform="matrix(1 0 0 -1 0 285.8568)">
				<stop  offset="0" style="stop-color:#F36F21"/>
				<stop  offset="0.968" style="stop-color:#F99B1C"/>
				<stop  offset="1" style="stop-color:#F99D1C"/>
			</linearGradient>
			<polygon class="st22" points="9.3,228.1 4.9,228.1 -2.2,221.6 2.1,221.6 			"/>
			
				<linearGradient id="SVGID_22_" gradientUnits="userSpaceOnUse" x1="8.2462" y1="65.8378" x2="15.2724" y2="56.1503" gradientTransform="matrix(1 0 0 -1 0 285.8568)">
				<stop  offset="0" style="stop-color:#F36F21"/>
				<stop  offset="0.968" style="stop-color:#F99B1C"/>
				<stop  offset="1" style="stop-color:#F99D1C"/>
			</linearGradient>
			<polygon class="st23" points="17.5,228.1 13.1,228.1 6,221.6 10.4,221.6 			"/>
			
				<linearGradient id="SVGID_23_" gradientUnits="userSpaceOnUse" x1="16.4548" y1="65.8259" x2="23.4809" y2="56.1384" gradientTransform="matrix(1 0 0 -1 0 285.8568)">
				<stop  offset="0" style="stop-color:#F36F21"/>
				<stop  offset="0.968" style="stop-color:#F99B1C"/>
				<stop  offset="1" style="stop-color:#F99D1C"/>
			</linearGradient>
			<polygon class="st24" points="25.7,228.1 21.4,228.1 14.2,221.6 18.6,221.6 			"/>
			
				<linearGradient id="SVGID_24_" gradientUnits="userSpaceOnUse" x1="24.6993" y1="65.8335" x2="31.7254" y2="56.146" gradientTransform="matrix(1 0 0 -1 0 285.8568)">
				<stop  offset="0" style="stop-color:#F36F21"/>
				<stop  offset="0.968" style="stop-color:#F99B1C"/>
				<stop  offset="1" style="stop-color:#F99D1C"/>
			</linearGradient>
			<polygon class="st25" points="33.9,228.1 29.6,228.1 22.5,221.6 26.8,221.6 			"/>
			
				<linearGradient id="SVGID_25_" gradientUnits="userSpaceOnUse" x1="32.9407" y1="65.8454" x2="39.9668" y2="56.1579" gradientTransform="matrix(1 0 0 -1 0 285.8568)">
				<stop  offset="0" style="stop-color:#F36F21"/>
				<stop  offset="0.968" style="stop-color:#F99B1C"/>
				<stop  offset="1" style="stop-color:#F99D1C"/>
			</linearGradient>
			<polygon class="st26" points="42.2,228.1 37.8,228.1 30.7,221.6 35.1,221.6 			"/>
			
				<linearGradient id="SVGID_26_" gradientUnits="userSpaceOnUse" x1="41.1492" y1="65.8336" x2="48.1784" y2="56.1418" gradientTransform="matrix(1 0 0 -1 0 285.8568)">
				<stop  offset="0" style="stop-color:#F36F21"/>
				<stop  offset="0.968" style="stop-color:#F99B1C"/>
				<stop  offset="1" style="stop-color:#F99D1C"/>
			</linearGradient>
			<polygon class="st27" points="50.4,228.1 46,228.1 38.9,221.6 43.3,221.6 			"/>
			
				<linearGradient id="SVGID_27_" gradientUnits="userSpaceOnUse" x1="49.3906" y1="65.8456" x2="56.4167" y2="56.1581" gradientTransform="matrix(1 0 0 -1 0 285.8568)">
				<stop  offset="0" style="stop-color:#F36F21"/>
				<stop  offset="0.968" style="stop-color:#F99B1C"/>
				<stop  offset="1" style="stop-color:#F99D1C"/>
			</linearGradient>
			<polygon class="st28" points="58.6,228.1 54.3,228.1 47.2,221.6 51.5,221.6 			"/>
			
				<linearGradient id="SVGID_28_" gradientUnits="userSpaceOnUse" x1="57.6351" y1="65.8531" x2="64.6643" y2="56.1613" gradientTransform="matrix(1 0 0 -1 0 285.8568)">
				<stop  offset="0" style="stop-color:#F36F21"/>
				<stop  offset="0.968" style="stop-color:#F99B1C"/>
				<stop  offset="1" style="stop-color:#F99D1C"/>
			</linearGradient>
			<polygon class="st29" points="66.9,228.1 62.5,228.1 55.4,221.6 59.7,221.6 			"/>
			
				<linearGradient id="SVGID_29_" gradientUnits="userSpaceOnUse" x1="65.8468" y1="65.8369" x2="72.8729" y2="56.1494" gradientTransform="matrix(1 0 0 -1 0 285.8568)">
				<stop  offset="0" style="stop-color:#F36F21"/>
				<stop  offset="0.968" style="stop-color:#F99B1C"/>
				<stop  offset="1" style="stop-color:#F99D1C"/>
			</linearGradient>
			<polygon class="st30" points="75.1,228.1 70.7,228.1 63.6,221.6 68,221.6 			"/>
			<g>
				
					<linearGradient id="SVGID_30_" gradientUnits="userSpaceOnUse" x1="3.447950e-02" y1="65.854" x2="7.0636" y2="56.1622" gradientTransform="matrix(1 0 0 -1 0 285.8568)">
					<stop  offset="0" style="stop-color:#F36F21"/>
					<stop  offset="0.968" style="stop-color:#F99B1C"/>
					<stop  offset="1" style="stop-color:#F99D1C"/>
				</linearGradient>
				<polygon class="st31" points="9.3,228.1 4.9,228.1 -2.2,221.6 2.1,221.6 				"/>
			</g>
			<g>
				
					<linearGradient id="SVGID_31_" gradientUnits="userSpaceOnUse" x1="8.2462" y1="65.8378" x2="15.2724" y2="56.1503" gradientTransform="matrix(1 0 0 -1 0 285.8568)">
					<stop  offset="0" style="stop-color:#F36F21"/>
					<stop  offset="0.968" style="stop-color:#F99B1C"/>
					<stop  offset="1" style="stop-color:#F99D1C"/>
				</linearGradient>
				<polygon class="st32" points="6,221.6 10.4,221.6 17.5,228.1 				"/>
			</g>
			<g>
				
					<linearGradient id="SVGID_32_" gradientUnits="userSpaceOnUse" x1="16.4548" y1="65.8259" x2="23.4809" y2="56.1384" gradientTransform="matrix(1 0 0 -1 0 285.8568)">
					<stop  offset="0" style="stop-color:#F36F21"/>
					<stop  offset="0.968" style="stop-color:#F99B1C"/>
					<stop  offset="1" style="stop-color:#F99D1C"/>
				</linearGradient>
				<polygon class="st33" points="25.7,228.1 21.4,228.1 14.2,221.6 18.6,221.6 				"/>
			</g>
			<g>
				
					<linearGradient id="SVGID_33_" gradientUnits="userSpaceOnUse" x1="24.6993" y1="65.8335" x2="31.7254" y2="56.146" gradientTransform="matrix(1 0 0 -1 0 285.8568)">
					<stop  offset="0" style="stop-color:#F36F21"/>
					<stop  offset="0.968" style="stop-color:#F99B1C"/>
					<stop  offset="1" style="stop-color:#F99D1C"/>
				</linearGradient>
				<polygon class="st34" points="33.9,228.1 29.6,228.1 22.5,221.6 26.8,221.6 				"/>
			</g>
			<g>
				
					<linearGradient id="SVGID_34_" gradientUnits="userSpaceOnUse" x1="32.9407" y1="65.8454" x2="39.9668" y2="56.1579" gradientTransform="matrix(1 0 0 -1 0 285.8568)">
					<stop  offset="0" style="stop-color:#F36F21"/>
					<stop  offset="0.968" style="stop-color:#F99B1C"/>
					<stop  offset="1" style="stop-color:#F99D1C"/>
				</linearGradient>
				<polygon class="st35" points="42.2,228.1 37.8,228.1 30.7,221.6 35.1,221.6 				"/>
			</g>
			<g>
				
					<linearGradient id="SVGID_35_" gradientUnits="userSpaceOnUse" x1="41.1492" y1="65.8336" x2="48.1784" y2="56.1418" gradientTransform="matrix(1 0 0 -1 0 285.8568)">
					<stop  offset="0" style="stop-color:#F36F21"/>
					<stop  offset="0.968" style="stop-color:#F99B1C"/>
					<stop  offset="1" style="stop-color:#F99D1C"/>
				</linearGradient>
				<polygon class="st36" points="50.4,228.1 46,228.1 38.9,221.6 43.3,221.6 				"/>
			</g>
			<g>
				
					<linearGradient id="SVGID_36_" gradientUnits="userSpaceOnUse" x1="49.3906" y1="65.8456" x2="56.4167" y2="56.1581" gradientTransform="matrix(1 0 0 -1 0 285.8568)">
					<stop  offset="0" style="stop-color:#F36F21"/>
					<stop  offset="0.968" style="stop-color:#F99B1C"/>
					<stop  offset="1" style="stop-color:#F99D1C"/>
				</linearGradient>
				<polygon class="st37" points="58.6,228.1 54.3,228.1 47.2,221.6 51.5,221.6 				"/>
			</g>
			<g>
				
					<linearGradient id="SVGID_37_" gradientUnits="userSpaceOnUse" x1="57.6351" y1="65.8531" x2="64.6643" y2="56.1613" gradientTransform="matrix(1 0 0 -1 0 285.8568)">
					<stop  offset="0" style="stop-color:#F36F21"/>
					<stop  offset="0.968" style="stop-color:#F99B1C"/>
					<stop  offset="1" style="stop-color:#F99D1C"/>
				</linearGradient>
				<polygon class="st38" points="66.9,228.1 62.5,228.1 55.4,221.6 59.7,221.6 				"/>
			</g>
			<g>
				
					<linearGradient id="SVGID_38_" gradientUnits="userSpaceOnUse" x1="65.8468" y1="65.8369" x2="72.8729" y2="56.1494" gradientTransform="matrix(1 0 0 -1 0 285.8568)">
					<stop  offset="0" style="stop-color:#F36F21"/>
					<stop  offset="0.968" style="stop-color:#F99B1C"/>
					<stop  offset="1" style="stop-color:#F99D1C"/>
				</linearGradient>
				<polygon class="st39" points="75.1,228.1 70.7,228.1 63.6,221.6 68,221.6 				"/>
			</g>
		</g>
		<g>
			<g>
				
					<linearGradient id="SVGID_39_" gradientUnits="userSpaceOnUse" x1="74.2455" y1="65.8387" x2="81.2716" y2="56.1512" gradientTransform="matrix(1 0 0 -1 0 285.8568)">
					<stop  offset="0" style="stop-color:#F36F21"/>
					<stop  offset="0.968" style="stop-color:#F99B1C"/>
					<stop  offset="1" style="stop-color:#F99D1C"/>
				</linearGradient>
				<polygon class="st40" points="83.5,228.1 79.1,228.1 72,221.6 76.4,221.6 				"/>
			</g>
			<g>
				
					<linearGradient id="SVGID_40_" gradientUnits="userSpaceOnUse" x1="82.4541" y1="65.8269" x2="89.4833" y2="56.1351" gradientTransform="matrix(1 0 0 -1 0 285.8568)">
					<stop  offset="0" style="stop-color:#F36F21"/>
					<stop  offset="0.968" style="stop-color:#F99B1C"/>
					<stop  offset="1" style="stop-color:#F99D1C"/>
				</linearGradient>
				<polygon class="st41" points="91.7,228.1 87.3,228.1 80.2,221.6 84.6,221.6 				"/>
			</g>
			<g>
				
					<linearGradient id="SVGID_41_" gradientUnits="userSpaceOnUse" x1="90.6986" y1="65.8345" x2="97.7247" y2="56.147" gradientTransform="matrix(1 0 0 -1 0 285.8568)">
					<stop  offset="0" style="stop-color:#F36F21"/>
					<stop  offset="0.968" style="stop-color:#F99B1C"/>
					<stop  offset="1" style="stop-color:#F99D1C"/>
				</linearGradient>
				<polygon class="st42" points="99.9,228.1 95.6,228.1 88.5,221.6 92.8,221.6 				"/>
			</g>
			<g>
				
					<linearGradient id="SVGID_42_" gradientUnits="userSpaceOnUse" x1="98.94" y1="65.8464" x2="105.9661" y2="56.1589" gradientTransform="matrix(1 0 0 -1 0 285.8568)">
					<stop  offset="0" style="stop-color:#F36F21"/>
					<stop  offset="0.968" style="stop-color:#F99B1C"/>
					<stop  offset="1" style="stop-color:#F99D1C"/>
				</linearGradient>
				<polygon class="st43" points="108.2,228.1 103.8,228.1 96.7,221.6 101.1,221.6 				"/>
			</g>
			<g>
				
					<linearGradient id="SVGID_43_" gradientUnits="userSpaceOnUse" x1="107.1517" y1="65.8302" x2="114.1778" y2="56.1427" gradientTransform="matrix(1 0 0 -1 0 285.8568)">
					<stop  offset="0" style="stop-color:#F36F21"/>
					<stop  offset="0.968" style="stop-color:#F99B1C"/>
					<stop  offset="1" style="stop-color:#F99D1C"/>
				</linearGradient>
				<polygon class="st44" points="116.4,228.1 112,228.1 104.9,221.6 109.3,221.6 				"/>
			</g>
			<g>
				
					<linearGradient id="SVGID_44_" gradientUnits="userSpaceOnUse" x1="115.3603" y1="65.8183" x2="122.3864" y2="56.1308" gradientTransform="matrix(1 0 0 -1 0 285.8568)">
					<stop  offset="0" style="stop-color:#F36F21"/>
					<stop  offset="0.968" style="stop-color:#F99B1C"/>
					<stop  offset="1" style="stop-color:#F99D1C"/>
				</linearGradient>
				<polygon class="st45" points="124.6,228.1 120.3,228.1 113.1,221.6 117.5,221.6 				"/>
			</g>
			<g>
				
					<linearGradient id="SVGID_45_" gradientUnits="userSpaceOnUse" x1="123.6376" y1="65.8497" x2="130.6637" y2="56.1622" gradientTransform="matrix(1 0 0 -1 0 285.8568)">
					<stop  offset="0" style="stop-color:#F36F21"/>
					<stop  offset="0.968" style="stop-color:#F99B1C"/>
					<stop  offset="1" style="stop-color:#F99D1C"/>
				</linearGradient>
				<polygon class="st46" points="132.9,228.1 128.5,228.1 121.4,221.6 125.7,221.6 				"/>
			</g>
			<g>
				
					<linearGradient id="SVGID_46_" gradientUnits="userSpaceOnUse" x1="131.8461" y1="65.8378" x2="138.8723" y2="56.1503" gradientTransform="matrix(1 0 0 -1 0 285.8568)">
					<stop  offset="0" style="stop-color:#F36F21"/>
					<stop  offset="0.968" style="stop-color:#F99B1C"/>
					<stop  offset="1" style="stop-color:#F99D1C"/>
				</linearGradient>
				<polygon class="st47" points="141.1,228.1 136.7,228.1 129.6,221.6 134,221.6 				"/>
			</g>
			<g>
				
					<linearGradient id="SVGID_47_" gradientUnits="userSpaceOnUse" x1="140.0547" y1="65.8259" x2="147.084" y2="56.1342" gradientTransform="matrix(1 0 0 -1 0 285.8568)">
					<stop  offset="0" style="stop-color:#F36F21"/>
					<stop  offset="0.968" style="stop-color:#F99B1C"/>
					<stop  offset="1" style="stop-color:#F99D1C"/>
				</linearGradient>
				<polygon class="st48" points="149.3,228.1 145,228.1 137.8,221.6 142.2,221.6 				"/>
			</g>
		</g>
	</g>
</g>
<g id="DIPLING">
	<path class="st0" d="M0.2,212.9v-54h21.3c7.6,0,14.1,2.3,19.4,7s8,11.3,8,20c0,4.4-0.9,8.4-2.6,12c-1.8,3.6-4,6.4-6.9,8.5
		c-2.8,2.1-5.9,3.7-9.2,4.8s-6.6,1.7-10,1.7H0.2L0.2,212.9z M9.8,204.2H17c6.5,0,11.8-1.5,15.8-4.5s6.1-7.6,6.1-13.8
		c0-6.3-1.8-10.9-5.5-13.8c-3.6-3-8.6-4.5-14.8-4.5H9.8V204.2L9.8,204.2z"/>
	<path class="st0" d="M57.8,212.9v-54h9.6v54H57.8L57.8,212.9z"/>
	<path class="st0" d="M79.3,212.9v-54h18.2c5.8,0,10.6,1.2,14.3,3.7c3.7,2.4,5.6,6.4,5.6,12c0,2.6-0.4,4.9-1.2,6.9
		c-0.8,1.9-1.8,3.5-3.1,4.7c-1.3,1.2-2.9,2.1-4.8,2.8s-3.9,1.1-5.8,1.4c-2,0.2-4.2,0.3-6.7,0.3h-6.9v22.4L79.3,212.9L79.3,212.9z
		 M88.9,182.3h5.8c1.4,0,2.5,0,3.5-0.1c0.9-0.1,2-0.2,3.3-0.5c1.2-0.3,2.3-0.7,3-1.2c0.8-0.5,1.4-1.3,2-2.3s0.8-2.2,0.8-3.6
		c0-5-3.8-7.5-11.5-7.5h-6.9L88.9,182.3L88.9,182.3z"/>
	<path class="st0" d="M125.9,212.9v-54h9.6v45.3h23v8.7H125.9L125.9,212.9z"/>
	<path class="st0" d="M165.2,212.9v-54h9.6v54H165.2L165.2,212.9z"/>
	<path class="st0" d="M186.7,212.9v-54h12.7l26.2,40.1h0.2v-40.1h9.6v54h-12.2l-26.7-41.4h-0.2v41.4H186.7L186.7,212.9z"/>
	<path class="st0" d="M295.4,181.4V209c-6.7,3.6-14.1,5.3-22.4,5.3c-8.4,0-15.2-2.6-20.6-7.8c-5.3-5.2-8-12-8-20.4
		c0-8.6,2.7-15.5,8-20.7c5.3-5.2,12.2-7.9,20.6-7.9c9.1,0,16.2,2.3,21.3,6.8l-7.1,7.2c-3.6-3.5-8.3-5.3-14.1-5.3
		c-5.5,0-10,1.8-13.4,5.5s-5.2,8.3-5.2,13.8c0,5.8,1.7,10.7,5.2,14.4c3.4,3.8,7.9,5.6,13.4,5.6c5.1,0,9.4-0.9,12.7-2.8V190h-11.1
		v-8.7L295.4,181.4L295.4,181.4z"/>
</g>
<rect x="99.5" y="143.3" class="st49" width="90.8" height="3.9"/>
</svg>
