<?xml version="1.0" encoding="utf-8"?>
<!-- Generator: Adobe Illustrator 24.0.1, SVG Export Plug-In . SVG Version: 6.00 Build 0)  -->
<svg version="1.1" id="Layer_1" xmlns="http://www.w3.org/2000/svg" xmlns:xlink="http://www.w3.org/1999/xlink" x="0px" y="0px"
	 viewBox="0 0 500 131.58" style="enable-background:new 0 0 500 131.58;" xml:space="preserve">
<style type="text/css">
	.st0{clip-path:url(#SVGID_2_);}
	.st1{fill:#FFFFFF;}
	.st2{fill:url(#SVGID_3_);}
	.st3{fill:url(#SVGID_4_);}
	.st4{fill:url(#SVGID_5_);}
	.st5{fill:url(#SVGID_6_);}
	.st6{fill:url(#SVGID_7_);}
	.st7{fill:url(#SVGID_8_);}
	.st8{fill:url(#SVGID_9_);}
	.st9{fill:url(#SVGID_10_);}
	.st10{fill:url(#SVGID_11_);}
	.st11{fill:url(#SVGID_12_);}
	.st12{fill:url(#SVGID_13_);}
	.st13{fill:url(#SVGID_14_);}
	.st14{fill:url(#SVGID_15_);}
	.st15{fill:url(#SVGID_16_);}
	.st16{fill:url(#SVGID_17_);}
	.st17{fill:url(#SVGID_18_);}
	.st18{fill:url(#SVGID_19_);}
	.st19{fill:url(#SVGID_20_);}
	.st20{fill:url(#SVGID_21_);}
	.st21{fill:url(#SVGID_22_);}
	.st22{fill:url(#SVGID_23_);}
	.st23{fill:url(#SVGID_24_);}
	.st24{fill:url(#SVGID_25_);}
	.st25{fill:url(#SVGID_26_);}
	.st26{fill:url(#SVGID_27_);}
	.st27{fill:url(#SVGID_28_);}
	.st28{fill:url(#SVGID_29_);}
	.st29{fill:url(#SVGID_30_);}
	.st30{fill:url(#SVGID_31_);}
	.st31{fill:url(#SVGID_32_);}
	.st32{fill:url(#SVGID_33_);}
	.st33{fill:url(#SVGID_34_);}
	.st34{fill:url(#SVGID_35_);}
	.st35{fill:url(#SVGID_36_);}
	.st36{fill:url(#SVGID_37_);}
	.st37{fill:url(#SVGID_38_);}
	.st38{fill:url(#SVGID_39_);}
	.st39{fill:url(#SVGID_40_);}
	.st40{fill:url(#SVGID_41_);}
	.st41{fill:url(#SVGID_42_);}
	.st42{fill:url(#SVGID_43_);}
	.st43{fill:url(#SVGID_44_);}
	.st44{fill:url(#SVGID_45_);}
	.st45{fill:url(#SVGID_46_);}
	.st46{fill:url(#SVGID_47_);}
</style>
<path id="Ellipse" d="M141.17,70.96c0,25.79-13.85,48.34-34.53,60.62H34.82C14.14,119.31,0.28,96.75,0.28,70.96
	c0-38.9,31.53-70.44,70.44-70.44S141.17,32.06,141.17,70.96z"/>
<g>
	<g>
		<defs>
			<path id="SVGID_1_" d="M141.45,70.72c0,25.89-13.91,48.53-34.67,60.86h-72.1C13.91,119.26,0,96.61,0,70.72
				C0,31.66,31.66,0,70.72,0S141.45,31.66,141.45,70.72z"/>
		</defs>
		<clipPath id="SVGID_2_">
			<use xlink:href="#SVGID_1_"  style="overflow:visible;"/>
		</clipPath>
		<g id="WORKER_2_" class="st0">
			<path class="st1" d="M112.6,131.58c-26.84,0-53.67,0-80.51,0c0.05-0.43,0.39-0.66,0.67-0.92c3.55-3.35,7.07-6.73,10.68-10.02
				c1.71-1.56,3.32-3.27,5.36-4.41c0.56-0.31,0.72-0.61,0.72-1.22c-0.02-21.04-0.01-42.09,0-63.13c0-0.65,0-1.18-0.88-1.02
				c-0.56,0.1-0.5-0.31-0.5-0.66c0-1.51-0.02-3.02,0.01-4.53c0.01-0.6-0.07-0.89-0.79-0.88c-6.36,0.03-12.72,0.02-19.07,0.02
				c-0.26,0-0.76-0.03-0.71,0.19c0.23,0.98-0.8,1.36-0.92,2.17c-0.26,1.75-0.64,3.49-0.88,5.25c-0.18,1.28,0.17,2.84-0.8,3.78
				c-1.38,1.33-0.61,2.72-0.46,4.07c0.07,0.61,0.21,1.13-0.25,1.58c-0.4,0.39-0.91,0.43-1.4,0.18c-0.62-0.32-0.68-0.87-0.46-1.65
				c0.19,0.7,0.48,1.23,1.13,0.93c0.62-0.28,0.33-0.86,0.18-1.32c-0.18-0.55-0.28-1.1-0.22-1.68c0.08-0.79,0.03-1.48-0.75-2.02
				c-0.5-0.35-0.8-1.07-0.62-1.66c0.54-1.84-0.26-3.49-0.61-5.2c-0.27-1.35-0.67-2.64-1.26-3.91c-0.23-0.49-0.28-0.74-0.84-0.74
				c-4.77,0.03-9.54,0.04-14.3,0.05c0-0.08,0-0.16,0-0.23c0.62-0.01,0.52-0.59,0.69-0.92c0.39-0.8,0.71-1.47,1.67-1.95
				c1.4-0.7,2.54-1.91,3.79-2.91c-0.03-0.08-0.06-0.15-0.1-0.23c-0.9,0-1.8,0-2.7,0c0.2-1.13,0.75-1.48,1.84-1.47
				c5.16,0.05,10.31,0,15.47,0c0.78,0,1.54-0.08,2.26-0.38c2.42-1,4.84-1.98,7.26-2.97c5.76-2.38,11.52-4.75,17.26-7.17
				c0.47-0.2,0.64,0.05,0.9,0.23c6.02,4.2,12.03,8.4,18.04,12.62c0.92,0.64,1.83,1.04,3,0.97c1.55-0.09,3.1,0,4.65-0.04
				c0.63-0.02,0.89,0.11,0.87,0.82c-0.05,1.78-0.04,3.57,0,5.35c0.02,0.65-0.16,0.86-0.84,0.85c-3.49-0.03-6.98-0.03-10.47,0
				c-0.71,0.01-0.95-0.17-0.92-0.9c0.05-1,0.35-2.35-0.15-2.91c-0.6-0.66-1.98-0.09-3-0.23c-1.08-0.15-1.24,0.3-1.23,1.27
				c0.03,20.58,0.02,41.16,0.03,61.75c0,0.37-0.11,0.75,0.19,1.24c0.22-0.62,0.41-1.14,0.6-1.66c1.14-3.12,2.61-3.9,5.77-2.98
				c2.79,0.82,5.57,1.69,8.46,2.58c-0.37-0.65-0.86-0.96-1.32-1.31c-1.98-1.48-4.16-2.65-6.35-3.79c-1.2-0.62-1.29-1.15-0.4-2.15
				c0.46-0.52,1.01-0.96,1.54-1.45c-1.51-0.94-1.94-1.66-1.86-3.29c0.05-0.92,0.19-1.84,0.37-2.75c0.1-0.53-0.01-0.64-0.55-0.67
				c-1.12-0.05-2.24-0.16-3.35-0.31c-1.84-0.25-2.2-0.76-2.1-2.65c0.06-1.09,0.72-1.78,1.55-2.31c0.6-0.39,0.82-0.84,0.8-1.53
				c-0.05-1.9-0.01-3.79-0.17-5.69c-0.21-2.52-0.06-5.04,0.55-7.49c1.68-6.68,5.93-11.39,11.66-14.92c4.64-2.86,9.68-4.5,15.12-4.95
				c7.21-0.6,13.85,0.71,19.37,5.77c0.59,0.54,1.27,0.87,2.35,0.76c-5.81-6.42-13.33-8.36-21.28-9.42c0.56-0.35,1.13-0.27,1.69-0.25
				c3.13,0.11,6.25,0.29,9.35,0.88c10.05,1.93,16.77,7.5,19.55,17.52c1.25,4.52,1.32,9.16,1.56,13.79c0.04,0.79,0.27,1.38,0.88,1.91
				c2.84,2.46,5.66,4.94,8.47,7.42c0.21,0.19,0.6,0.36,0.42,0.73c-0.16,0.32-0.5,0.09-0.74,0.06c-3.38-0.4-6.76-0.77-10.13-1.24
				c-4.43-0.63-8.85-1.35-13.28-2.03c-4.92-0.76-9.84-1.55-14.77-2.24c-1.7-0.24-3.39-0.71-5.31-0.51c0.24,0.11,0.33,0.17,0.42,0.19
				c8.77,2.33,17.55,4.66,26.32,7c0.83,0.22,1.66,0.52,2.11,1.31c1.66,2.95,3.29,5.92,4.94,8.89c0.34,0.61,0.28,1.14-0.14,1.71
				c-0.8,1.1-1.91,1.55-3.2,1.55c-0.79,0-1.09,0.29-1.19,1.05c-0.11,0.85-0.14,1.69-0.09,2.55c0.04,0.72-0.03,1.38-0.79,1.78
				c-0.58,0.3-0.62,0.82-0.43,1.39c0.27,0.82,0.11,1.59-0.6,2.07c-0.7,0.47-0.87,1.15-1,1.86c-0.19,1.06-0.34,2.13-0.5,3.2
				c-0.21,1.42-0.93,2.42-2.32,2.9c-1.03,0.35-2.06,0.28-3.09,0.07c-2.38-0.47-4.48-1.58-6.51-2.85c-0.76-0.48-0.76-0.48-1.51-0.39
				c1.4,1.19,2.83,2.3,4.44,3.14c2.52,1.31,5.15,2.37,7.96,1.32c2.07-0.77,4.02-0.47,6.03-0.14c0.59,0.1,0.72,0.38,0.23,0.82
				c-1.03,0.94-2.04,1.9-3.08,2.84C117.74,127.87,115.12,129.66,112.6,131.58z M57.9,43.53c0.64,0.25,1.36-0.04,1.33,0.86
				c-0.05,1.97-0.02,3.95-0.02,5.93c0,0.28-0.01,0.62-0.39,0.55c-1.1-0.19-0.92,0.55-0.92,1.19c0,19.68,0,39.37,0,59.05
				c0,0.37,0,0.73,0,1.31c1.24-0.83,2.28-1.55,3.33-2.24c0.7-0.47,0.94-1.06,0.94-1.94c-0.03-17.2-0.02-34.41-0.02-51.61
				c0-4.07-0.03-8.14,0.03-12.21c0.01-0.89-0.31-1.13-1.1-1.17C60.1,43.19,59.15,43.33,57.9,43.53z M52.32,28.51
				c-7.25,2.84-14.35,5.61-21.45,8.39c0.03,0.08,0.05,0.16,0.08,0.24c0.42,0,0.84,0,1.26,0c4.45,0,8.91-0.01,13.36,0.02
				c0.29,0,0.93-0.3,0.84,0.36c-0.34,2.5,1.99,3.3,2.98,5.3C50.41,37.86,51.35,33.28,52.32,28.51z M53.54,28.16
				c0.52,1.68,0.94,3.07,1.38,4.45c0.45,1.43,0.85,2.88,1.41,4.26c0.47,1.16,0.32,2.85,1.39,3.39c1.03,0.51,2.5,0.13,3.77,0.15
				c0.04,0,0.08,0,0.12,0c0.45,0.06,0.61-0.12,0.6-0.58c-0.04-1.7-0.06-3.4-0.05-5.1c0-0.45-0.22-0.71-0.55-0.94
				C58.99,31.96,56.38,30.14,53.54,28.16z M52.99,31.56c-0.06,0-0.11,0-0.17,0c-0.45,3.05-0.9,6.11-1.36,9.16
				C51,43.7,51,43.7,54.01,43.68c0.23,0,0.47-0.01,0.7-0.01c0.64-0.02,0.95-0.35,0.81-0.97C54.68,38.98,53.83,35.27,52.99,31.56z
				 M21.46,46.44c0.4,1.82,0.8,3.55,1.15,5.28c0.29,1.41,1.59-0.02,2.1,0.77c0.03,0.04,0.2,0.28,0.35,0.06
				c0.04-0.06,0.04-0.15,0.05-0.22c0.35-1.94,0.71-3.89,1.07-5.88C24.56,46.44,23.06,46.44,21.46,46.44z M63.46,35.07
				c0,1.73,0,3.26,0,4.8c0,0.29,0.02,0.54,0.41,0.54c2.33-0.01,4.66,0,7.29,0C68.46,38.53,66.04,36.86,63.46,35.07z M53.75,48.36
				c1.01,0,2.01-0.03,3.01,0.01c0.57,0.03,0.75-0.18,0.7-0.72c-0.04-0.38-0.04-0.77,0-1.16c0.05-0.53-0.1-0.75-0.69-0.74
				c-1.97,0.04-3.94,0.01-5.91,0.02c-0.29,0-0.59-0.08-0.72,0.37c-0.43,1.53,0.06,2.22,1.64,2.22
				C52.43,48.36,53.09,48.36,53.75,48.36z M31.11,38.82c1.01,1.26,1.93,2.42,2.87,3.57c0.17,0.21,0.43,0.38,0.7,0.16
				c1.52-1.19,3.03-2.38,4.74-3.73C36.5,38.82,33.89,38.82,31.11,38.82z M13.57,38.8c0.99,1.21,1.87,2.28,2.76,3.34
				c0.13,0.15,0.36,0.18,0.53,0.04c1.36-1.07,2.71-2.15,4.26-3.38C18.48,38.8,16.17,38.8,13.57,38.8z M22.51,38.82
				c0.91,1.1,1.7,2.05,2.5,3c0.15,0.18,0.26,0.53,0.62,0.24c1.28-1.04,2.57-2.08,4-3.23C27.14,38.82,24.91,38.82,22.51,38.82z
				 M75.14,43.98c0-0.31-0.04-0.62,0.01-0.92c0.15-0.95-0.21-1.22-1.18-1.23c-1.07-0.02-1.21,0.44-1.14,1.3
				c0.06,0.69,0.01,1.39,0.01,2.08c0,0.36,0.04,0.67,0.49,0.79c1.3,0.35,1.81-0.01,1.81-1.32C75.14,44.45,75.14,44.22,75.14,43.98z
				 M71.46,43.95c0-0.5,0.01-1.01,0-1.51c-0.03-0.97-0.78-0.49-1.22-0.55c-0.41-0.06-0.97-0.21-0.94,0.59
				c0.04,0.97,0,1.94,0.01,2.91c0,0.25-0.07,0.5,0.33,0.61c1.27,0.34,1.82-0.05,1.82-1.35C71.46,44.41,71.46,44.18,71.46,43.95z
				 M39.74,38.82c0.7,0.87,1.27,1.6,1.87,2.3c0.14,0.17,0.27,0.59,0.61,0.33c1.06-0.81,2.1-1.66,3.33-2.64
				C43.46,38.82,41.7,38.82,39.74,38.82z M53.56,54.24c0.69-0.84,1.25-1.66,1.68-2.56c0.14-0.29,0.45-0.78-0.28-0.8
				c-1.17-0.02-2.33-0.01-3.69-0.01C52.11,52.12,52.82,53.16,53.56,54.24z M51.19,77.92c0.35,1.01,1.15,1.53,1.75,2.21
				c0.23,0.26,0.38,0.18,0.55,0c0.65-0.68,1.36-1.31,1.94-2.21C53.96,77.92,52.62,77.92,51.19,77.92z M55.42,110.69
				c-1.49,0-2.81,0-4.15,0c1.26,2.59,1.92,2.69,3.65,0.57C55.05,111.11,55.19,110.95,55.42,110.69z M52.94,104.93
				c0.35-0.96,1.68-1.52,1.31-2.14c-0.35-0.6-1.63-0.24-2.5-0.28c-0.17-0.01-0.38-0.09-0.6,0.23
				C51.7,103.41,52.27,104.11,52.94,104.93z M47.23,42.88c-0.52-0.61-0.92-1.13-1.36-1.6c-0.14-0.15-0.27-0.53-0.61-0.22
				c-0.6,0.55-1.2,1.11-1.97,1.82C44.73,42.88,45.89,42.88,47.23,42.88z M31.76,42.47c-0.54-0.62-0.95-1.08-1.35-1.54
				c-0.22-0.26-0.41-0.43-0.75-0.11c-0.54,0.53-1.12,1.01-1.83,1.65C29.22,42.47,30.38,42.47,31.76,42.47z M54.62,69.94
				c-1.29,0-2.35,0-3.52,0c0.63,0.78,1.1,1.53,1.83,2.13C53.46,71.41,53.97,70.77,54.62,69.94z M19.6,42.31c1.22,0,2.27,0,3.38,0
				C21.21,40.09,21.74,40.16,19.6,42.31z M54.57,94.12c-0.94-0.06-1.89-0.13-3-0.2c0.51,0.92,0.96,1.89,1.68,2.06
				c0.45,0.11,0.98-1.02,1.35-1.68C54.62,94.28,54.59,94.24,54.57,94.12z M53.27,63.57c0.43-0.8,1.11-1.3,1.41-2.2
				c-1.06,0-2.01,0-3.11,0C52.16,62.14,52.66,62.79,53.27,63.57z M13.92,42.45c-1.69-2.14-2.01-2.13-3.33,0
				C11.66,42.45,12.71,42.45,13.92,42.45z M51.29,53.65c0,1.39,0,2.66,0,4.04C52.9,55.61,52.9,55.6,51.29,53.65z M51.24,90.34
				c1.59-1.71,1.59-2.36,0-3.95C51.24,87.7,51.24,88.95,51.24,90.34z M37.48,42.67c1.04,0,1.98,0,2.96,0
				C39,40.63,39.24,40.74,37.48,42.67z M54.39,100.72c-0.37-0.69-0.71-1.24-1.23-1.7c-0.44,0.54-0.86,1.06-1.38,1.7
				C52.73,100.72,53.48,100.72,54.39,100.72z M53.58,89.97c-0.49,0.7-0.9,1.3-1.4,2.02c0.93,0,1.67,0,2.61,0
				C54.36,91.28,54.01,90.68,53.58,89.97z M53.57,57.32c-0.46,0.63-0.87,1.21-1.37,1.9c0.92,0,1.66,0,2.46,0
				C54.42,58.48,54.01,57.95,53.57,57.32z M54.42,68.05c-0.46-0.68-0.7-1.63-1.25-1.57c-0.5,0.06-0.95,0.88-1.27,1.57
				C52.76,68.05,53.49,68.05,54.42,68.05z M51.54,108.97c0.58,0,0.96,0.03,1.34-0.01c0.35-0.03,0.75,0.17,1.14-0.24
				c-0.47-0.39-0.64-1.29-1.17-1.25C52.32,107.51,51.89,108.21,51.54,108.97z M55.35,104.66c-1.7,1.59-1.72,1.31,0,2.86
				C55.35,106.59,55.35,105.65,55.35,104.66z M55.33,74.87c0-1.02,0-1.92,0-2.89C53.73,73.52,53.6,73.22,55.33,74.87z M51.59,76.14
				c0.86,0,1.59,0,2.45,0c-0.44-0.59-0.78-1.05-1.15-1.55C52.4,75.09,51.92,75.48,51.59,76.14z M55.41,66.31c0-0.96,0-1.77,0-2.65
				C54.09,64.99,54.08,65.01,55.41,66.31z M55.46,96.37c-1.39,1.2-1.35,1.75,0,2.47C55.46,98.08,55.46,97.32,55.46,96.37z
				 M53.66,86.96c0.21-0.53,0.99-0.99,0.67-1.42c-0.27-0.38-1.09-0.19-1.73-0.04C52.97,86.04,53.14,86.6,53.66,86.96z M52.12,84.01
				c0.72,0,1.4,0,2.13,0C53.37,82.47,53.19,82.48,52.12,84.01z M51.31,65.89c1.08-0.91,1.09-1.29,0-2.25
				C51.31,64.42,51.31,65.14,51.31,65.89z M51.32,96.38c0,0.77,0,1.46,0,2.23C52.39,97.62,52.38,97.28,51.32,96.38z M51.24,82.44
				c1.2-1,1.18-1.28,0-1.87C51.24,81.15,51.24,81.73,51.24,82.44z M55.35,80.61c-0.67,0.76-1.32,1.33,0,1.84
				C55.35,81.9,55.35,81.35,55.35,80.61z M55.35,55.05c-0.88,0.61-0.77,1.1,0,1.65C55.35,56.12,55.35,55.65,55.35,55.05z
				 M55.36,87.76c-0.94,0.64-0.67,1.12,0,1.67C55.36,88.84,55.36,88.35,55.36,87.76z M51.26,73.88c0.84-0.48,0.66-0.85,0-1.3
				C51.26,73.04,51.26,73.41,51.26,73.88z M51.27,106.63c0.68-0.71,0.68-0.71,0-1.28C51.27,105.75,51.27,106.13,51.27,106.63z"/>
		</g>
	</g>
</g>
<g id="HEALTH_AND_SAFETY">
	<path d="M167.42,122.05v-14.88h2.65v5.93h6.96v-5.93h2.65v14.88h-2.65v-6.56h-6.96v6.56H167.42z"/>
	<path d="M192.47,117.89h-7.69c0.08,0.73,0.38,1.31,0.88,1.74s1.11,0.65,1.83,0.65c1.06,0,1.97-0.46,2.71-1.37l1.81,1.37
		c-1.09,1.34-2.51,2.02-4.27,2.02c-1.56,0-2.86-0.49-3.91-1.48c-1.05-0.99-1.58-2.26-1.58-3.81c0-1.56,0.53-2.83,1.58-3.81
		c1.05-0.99,2.35-1.48,3.91-1.48c1.43,0,2.57,0.48,3.44,1.45c0.86,0.97,1.29,2.31,1.29,4.03V117.89z M184.78,116h5.17
		c-0.01-0.74-0.25-1.33-0.7-1.75c-0.46-0.43-1.08-0.64-1.86-0.64c-0.73,0-1.32,0.21-1.78,0.64
		C185.15,114.68,184.88,115.26,184.78,116z"/>
	<path d="M201.13,122.05v-1.39h-0.06c-0.69,1.09-1.77,1.64-3.24,1.64c-1.01,0-1.87-0.27-2.6-0.8c-0.72-0.53-1.08-1.27-1.08-2.23
		c0-0.53,0.09-1,0.28-1.4s0.46-0.72,0.82-0.97s0.73-0.45,1.11-0.61c0.39-0.16,0.84-0.28,1.38-0.36c0.53-0.08,1-0.13,1.4-0.15
		c0.4-0.02,0.85-0.03,1.36-0.03h0.63v-0.27c0-0.6-0.21-1.07-0.63-1.4s-0.98-0.49-1.68-0.49c-1.05,0-1.95,0.35-2.69,1.05l-1.32-1.32
		c1.06-1.08,2.49-1.62,4.29-1.62c0.59,0,1.12,0.06,1.59,0.19c0.47,0.13,0.85,0.28,1.16,0.45c0.3,0.18,0.56,0.41,0.77,0.7
		c0.21,0.29,0.36,0.56,0.46,0.8c0.1,0.24,0.18,0.53,0.23,0.88c0.06,0.35,0.09,0.62,0.09,0.8c0.01,0.18,0.01,0.42,0.01,0.71v5.8
		h-2.28V122.05z M200.98,118.1v-0.57h-0.53c-2.52,0-3.78,0.52-3.78,1.56c0,0.43,0.18,0.76,0.54,0.99c0.36,0.22,0.77,0.34,1.23,0.34
		c0.84,0,1.47-0.2,1.9-0.61C200.77,119.4,200.98,118.83,200.98,118.1z"/>
	<path d="M206.15,122.05v-15.89h2.52v15.89H206.15z"/>
	<path d="M212.48,114.11h-2.08v-2.14h2.08v-2.92H215v2.92h2.77v2.14H215v4.41c0,0.55,0.1,0.96,0.3,1.23c0.2,0.27,0.57,0.41,1.1,0.41
		c0.63,0,1.09-0.1,1.37-0.32v2.12c-0.46,0.22-1.13,0.34-2,0.34c-1.27,0-2.14-0.28-2.61-0.84c-0.46-0.56-0.69-1.47-0.69-2.73
		L212.48,114.11L212.48,114.11z"/>
	<path d="M222.27,106.17v7.21h0.04c0.22-0.46,0.59-0.85,1.1-1.18c0.51-0.32,1.13-0.48,1.86-0.48c1.26,0,2.19,0.38,2.78,1.12
		c0.6,0.75,0.89,1.7,0.89,2.85v6.37h-2.52v-5.11c0-0.36-0.02-0.68-0.05-0.96c-0.04-0.27-0.11-0.58-0.21-0.92
		c-0.11-0.34-0.29-0.61-0.56-0.8s-0.61-0.28-1.03-0.28c-0.78,0-1.37,0.24-1.74,0.72c-0.38,0.48-0.57,1.1-0.57,1.84v5.51h-2.52
		v-15.89H222.27z"/>
	<path d="M244.33,122.05v-1.39h-0.06c-0.69,1.09-1.77,1.64-3.24,1.64c-1.01,0-1.87-0.27-2.6-0.8c-0.72-0.53-1.08-1.27-1.08-2.23
		c0-0.53,0.09-1,0.28-1.4s0.46-0.72,0.82-0.97s0.73-0.45,1.11-0.61c0.39-0.16,0.84-0.28,1.38-0.36c0.53-0.08,1-0.13,1.4-0.15
		c0.4-0.02,0.85-0.03,1.36-0.03h0.63v-0.27c0-0.6-0.21-1.07-0.63-1.4s-0.98-0.49-1.68-0.49c-1.05,0-1.95,0.35-2.69,1.05l-1.32-1.32
		c1.06-1.08,2.49-1.62,4.29-1.62c0.59,0,1.12,0.06,1.59,0.19c0.47,0.13,0.85,0.28,1.16,0.45c0.3,0.18,0.56,0.41,0.77,0.7
		c0.21,0.29,0.36,0.56,0.46,0.8c0.1,0.24,0.18,0.53,0.23,0.88c0.06,0.35,0.09,0.62,0.09,0.8c0.01,0.18,0.01,0.42,0.01,0.71v5.8
		h-2.28V122.05z M244.19,118.1v-0.57h-0.53c-2.52,0-3.78,0.52-3.78,1.56c0,0.43,0.18,0.76,0.54,0.99c0.36,0.22,0.77,0.34,1.23,0.34
		c0.84,0,1.47-0.2,1.9-0.61C243.97,119.4,244.19,118.83,244.19,118.1z"/>
	<path d="M249.31,122.05v-10.09h2.4v1.62h0.04c0.57-1.25,1.6-1.87,3.09-1.87c1.26,0,2.19,0.38,2.78,1.12
		c0.6,0.75,0.89,1.7,0.89,2.85v6.37H256v-5.11c0-0.36-0.02-0.68-0.05-0.96c-0.03-0.27-0.11-0.58-0.21-0.92
		c-0.11-0.34-0.29-0.61-0.56-0.8s-0.61-0.28-1.03-0.28c-0.79,0-1.37,0.24-1.74,0.72c-0.38,0.48-0.57,1.1-0.57,1.84v5.51
		C251.84,122.05,249.31,122.05,249.31,122.05z"/>
	<path d="M269.36,122.05v-1.51h-0.04c-0.71,1.18-1.87,1.77-3.47,1.77c-1.51,0-2.72-0.5-3.62-1.5s-1.36-2.27-1.36-3.79
		c0-1.51,0.45-2.77,1.37-3.78c0.91-1.01,2.08-1.51,3.51-1.51c1.46,0,2.6,0.51,3.43,1.53h0.06v-7.08h2.52v15.89h-2.4V122.05z
		 M264.2,114.88c-0.54,0.6-0.81,1.31-0.81,2.13c0,0.83,0.27,1.54,0.81,2.13c0.54,0.6,1.26,0.89,2.15,0.89c0.9,0,1.61-0.3,2.15-0.89
		c0.54-0.6,0.81-1.31,0.81-2.13c0-0.83-0.27-1.54-0.81-2.13c-0.54-0.6-1.26-0.89-2.15-0.89
		C265.46,113.99,264.74,114.28,264.2,114.88z"/>
	<path d="M290.29,108.33l-1.93,2.04c-0.56-0.78-1.43-1.18-2.61-1.18c-0.67,0-1.25,0.16-1.72,0.48c-0.48,0.32-0.71,0.8-0.71,1.43
		c0,0.46,0.17,0.85,0.53,1.16c0.35,0.31,0.78,0.54,1.3,0.69s1.09,0.35,1.7,0.58c0.62,0.23,1.18,0.48,1.7,0.76
		c0.52,0.27,0.95,0.7,1.3,1.28c0.35,0.58,0.53,1.29,0.53,2.11c0,1.53-0.52,2.7-1.56,3.52s-2.33,1.23-3.89,1.23
		c-2.12,0-3.74-0.67-4.88-2.02l2-1.93c0.69,1.04,1.67,1.56,2.94,1.56c0.67,0,1.27-0.18,1.81-0.54s0.8-0.86,0.8-1.5
		c0-0.43-0.13-0.81-0.39-1.11c-0.26-0.31-0.6-0.55-1.01-0.73c-0.41-0.17-0.87-0.34-1.38-0.49c-0.5-0.15-1.01-0.33-1.51-0.54
		c-0.5-0.2-0.96-0.45-1.38-0.75c-0.41-0.29-0.75-0.7-1.01-1.23c-0.26-0.53-0.39-1.15-0.39-1.86c0-1.44,0.54-2.55,1.62-3.33
		s2.37-1.17,3.87-1.17C287.79,106.8,289.21,107.31,290.29,108.33z"/>
	<path d="M299.2,122.05v-1.39h-0.06c-0.69,1.09-1.77,1.64-3.24,1.64c-1.01,0-1.87-0.27-2.6-0.8c-0.72-0.53-1.08-1.27-1.08-2.23
		c0-0.53,0.09-1,0.28-1.4s0.46-0.72,0.82-0.97c0.36-0.25,0.73-0.45,1.11-0.61c0.39-0.16,0.84-0.28,1.38-0.36
		c0.53-0.08,1-0.13,1.4-0.15c0.4-0.02,0.85-0.03,1.36-0.03h0.63v-0.27c0-0.6-0.21-1.07-0.63-1.4s-0.98-0.49-1.68-0.49
		c-1.05,0-1.95,0.35-2.69,1.05l-1.32-1.32c1.06-1.08,2.49-1.62,4.29-1.62c0.59,0,1.12,0.06,1.59,0.19c0.47,0.13,0.85,0.28,1.16,0.45
		c0.3,0.18,0.56,0.41,0.77,0.7c0.21,0.29,0.36,0.56,0.46,0.8c0.1,0.24,0.17,0.53,0.23,0.88s0.09,0.62,0.09,0.8
		c0.01,0.18,0.01,0.42,0.01,0.71v5.8h-2.28V122.05z M299.05,118.1v-0.57h-0.53c-2.52,0-3.78,0.52-3.78,1.56
		c0,0.43,0.18,0.76,0.54,0.99c0.36,0.22,0.77,0.34,1.23,0.34c0.84,0,1.47-0.2,1.9-0.61C298.84,119.4,299.05,118.83,299.05,118.1z"/>
	<path d="M305.08,122.05v-7.94H303v-2.14h2.08v-1.43c0-1.54,0.26-2.7,0.79-3.47c0.53-0.77,1.52-1.16,2.97-1.16
		c0.57,0,1.11,0.05,1.6,0.15l-0.17,2.14c-0.42-0.1-0.77-0.15-1.05-0.15c-0.64,0-1.08,0.18-1.29,0.55c-0.22,0.36-0.33,0.88-0.33,1.53
		v1.83h2.33v2.14h-2.33v7.94h-2.52V122.05z"/>
	<path d="M321.29,117.89h-7.69c0.08,0.73,0.38,1.31,0.88,1.74s1.11,0.65,1.83,0.65c1.06,0,1.97-0.46,2.71-1.37l1.81,1.37
		c-1.09,1.34-2.51,2.02-4.27,2.02c-1.56,0-2.86-0.49-3.91-1.48s-1.58-2.26-1.58-3.81c0-1.56,0.53-2.83,1.58-3.81
		s2.35-1.48,3.91-1.48c1.43,0,2.57,0.48,3.44,1.45c0.86,0.97,1.29,2.31,1.29,4.03V117.89z M313.59,116h5.17
		c-0.01-0.74-0.25-1.33-0.7-1.75c-0.46-0.43-1.08-0.64-1.86-0.64c-0.73,0-1.32,0.21-1.78,0.64
		C313.97,114.68,313.69,115.26,313.59,116z"/>
	<path d="M324.54,114.11h-2.08v-2.14h2.08v-2.92h2.52v2.92h2.77v2.14h-2.77v4.41c0,0.55,0.1,0.96,0.3,1.23
		c0.2,0.27,0.57,0.41,1.1,0.41c0.63,0,1.09-0.1,1.37-0.32v2.12c-0.46,0.22-1.13,0.34-2,0.34c-1.27,0-2.14-0.28-2.61-0.84
		c-0.46-0.56-0.69-1.47-0.69-2.73v-4.62H324.54z"/>
	<path d="M334.76,122.14l-4.31-10.17h2.77l2.82,7h0.04l2.52-7h2.63l-4.77,12.25c-0.39,1.01-0.87,1.74-1.42,2.2
		c-0.55,0.46-1.36,0.68-2.43,0.68c-0.66,0-1.3-0.08-1.93-0.25l0.32-2.27c0.46,0.17,0.89,0.25,1.28,0.25c0.59,0,1.01-0.11,1.27-0.33
		c0.26-0.22,0.5-0.61,0.73-1.17L334.76,122.14z"/>
	<path d="M349.09,109.6c-0.31-0.3-0.46-0.65-0.46-1.06c0-0.41,0.15-0.76,0.46-1.06c0.31-0.3,0.69-0.45,1.13-0.45
		c0.46,0,0.85,0.14,1.17,0.43s0.47,0.65,0.47,1.08s-0.16,0.8-0.47,1.08c-0.32,0.29-0.7,0.43-1.17,0.43
		C349.77,110.06,349.4,109.9,349.09,109.6z M348.98,122.05v-10.09h2.52v10.09H348.98z"/>
	<path d="M354.4,122.05v-10.09h2.4v1.62h0.04c0.57-1.25,1.6-1.87,3.09-1.87c1.26,0,2.19,0.38,2.78,1.12c0.6,0.75,0.89,1.7,0.89,2.85
		v6.37h-2.52v-5.11c0-0.36-0.02-0.68-0.05-0.96c-0.04-0.27-0.11-0.58-0.21-0.92c-0.11-0.34-0.29-0.61-0.56-0.8s-0.61-0.28-1.03-0.28
		c-0.78,0-1.37,0.24-1.74,0.72c-0.38,0.48-0.57,1.1-0.57,1.84v5.51C356.92,122.05,354.4,122.05,354.4,122.05z"/>
	<path d="M385.19,109.15l-2.06,1.51c-0.92-0.98-1.97-1.47-3.13-1.47c-1.51,0-2.74,0.51-3.69,1.52c-0.95,1.02-1.42,2.28-1.42,3.79
		c0,1.61,0.47,2.94,1.42,3.97c0.95,1.04,2.18,1.56,3.69,1.56c1.29,0,2.4-0.6,3.34-1.81l2.19,1.56c-1.29,1.77-3.14,2.65-5.55,2.65
		c-2.31,0-4.2-0.71-5.66-2.14s-2.2-3.3-2.2-5.61c0-2.37,0.73-4.27,2.2-5.72c1.46-1.44,3.35-2.16,5.66-2.16
		C382.09,106.8,383.83,107.58,385.19,109.15z"/>
	<path d="M388.15,120.83c-1.05-0.99-1.58-2.26-1.58-3.81c0-1.56,0.53-2.83,1.58-3.81c1.05-0.99,2.35-1.48,3.91-1.48
		s2.86,0.49,3.91,1.48s1.58,2.26,1.58,3.81c0,1.56-0.53,2.83-1.58,3.81s-2.35,1.48-3.91,1.48S389.2,121.81,388.15,120.83z
		 M389.91,114.88c-0.54,0.6-0.81,1.31-0.81,2.13c0,0.83,0.27,1.54,0.81,2.13c0.54,0.6,1.26,0.89,2.15,0.89c0.9,0,1.61-0.3,2.15-0.89
		c0.54-0.6,0.81-1.31,0.81-2.13c0-0.83-0.27-1.54-0.81-2.13c-0.54-0.6-1.26-0.89-2.15-0.89
		C391.16,113.99,390.45,114.28,389.91,114.88z"/>
	<path d="M399.9,122.05v-10.09h2.4v1.62h0.04c0.57-1.25,1.6-1.87,3.09-1.87c1.26,0,2.19,0.38,2.78,1.12c0.6,0.75,0.89,1.7,0.89,2.85
		v6.37h-2.52v-5.11c0-0.36-0.02-0.68-0.05-0.96c-0.04-0.27-0.11-0.58-0.21-0.92c-0.11-0.34-0.29-0.61-0.56-0.8s-0.61-0.28-1.03-0.28
		c-0.78,0-1.37,0.24-1.74,0.72c-0.38,0.48-0.57,1.1-0.57,1.84v5.51C402.42,122.05,399.9,122.05,399.9,122.05z"/>
	<path d="M419.02,113.25l-1.68,1.51c-0.49-0.69-1.15-1.03-1.98-1.03c-0.38,0-0.72,0.09-1.02,0.27s-0.45,0.45-0.45,0.8
		c0,0.32,0.19,0.57,0.56,0.75s0.83,0.32,1.37,0.42c0.54,0.11,1.08,0.24,1.61,0.41c0.53,0.17,0.98,0.48,1.36,0.92
		c0.37,0.45,0.56,1.04,0.56,1.77c0,1.11-0.43,1.92-1.29,2.45c-0.86,0.53-1.88,0.79-3.06,0.79c-1.7,0-3.01-0.52-3.93-1.56l1.68-1.58
		c0.76,0.83,1.56,1.24,2.4,1.24c0.42,0,0.81-0.1,1.16-0.3c0.35-0.2,0.53-0.49,0.53-0.85c0-0.38-0.19-0.67-0.56-0.86
		c-0.37-0.2-0.82-0.35-1.36-0.45c-0.53-0.11-1.07-0.23-1.61-0.39c-0.54-0.15-0.99-0.44-1.37-0.87c-0.37-0.43-0.56-1-0.56-1.71
		c0-1.05,0.4-1.86,1.19-2.42s1.75-0.84,2.87-0.84C417.07,111.72,418.27,112.23,419.02,113.25z"/>
	<path d="M422.19,114.11h-2.08v-2.14h2.08v-2.92h2.52v2.92h2.77v2.14h-2.77v4.41c0,0.55,0.1,0.96,0.3,1.23
		c0.2,0.27,0.57,0.41,1.1,0.41c0.63,0,1.09-0.1,1.37-0.32v2.12c-0.46,0.22-1.13,0.34-2,0.34c-1.27,0-2.14-0.28-2.61-0.84
		c-0.46-0.56-0.69-1.47-0.69-2.73v-4.62H422.19z"/>
	<path d="M429.47,122.05v-10.09h2.52v1.6h0.04c0.28-0.57,0.68-1.03,1.21-1.36s1.12-0.49,1.78-0.49c0.25,0,0.55,0.05,0.9,0.15v2.44
		c-0.5-0.13-0.91-0.19-1.22-0.19c-0.55,0-1.02,0.1-1.41,0.3c-0.39,0.2-0.67,0.46-0.84,0.77c-0.17,0.31-0.29,0.58-0.36,0.83
		c-0.07,0.25-0.1,0.46-0.1,0.64v5.4C431.99,122.05,429.47,122.05,429.47,122.05z"/>
	<path d="M446.84,111.97v10.09h-2.4v-1.62h-0.04c-0.57,1.25-1.6,1.87-3.09,1.87c-1.26,0-2.19-0.37-2.78-1.12
		c-0.6-0.75-0.89-1.7-0.89-2.85v-6.37h2.52v5.11c0,0.36,0.02,0.68,0.05,0.96c0.03,0.27,0.1,0.58,0.21,0.92
		c0.1,0.34,0.29,0.61,0.56,0.8s0.61,0.28,1.03,0.28c0.78,0,1.37-0.24,1.74-0.73c0.38-0.48,0.57-1.1,0.57-1.84v-5.51h2.52V111.97z"/>
	<path d="M458.34,113.25l-1.74,1.74c-0.64-0.67-1.28-1.01-1.91-1.01c-0.9,0-1.61,0.3-2.15,0.89c-0.54,0.6-0.81,1.31-0.81,2.13
		c0,0.83,0.27,1.54,0.81,2.13c0.54,0.6,1.26,0.89,2.15,0.89c0.83,0,1.48-0.32,1.95-0.95l1.68,1.81c-0.46,0.46-1.05,0.81-1.75,1.05
		c-0.71,0.24-1.33,0.36-1.88,0.36c-1.56,0-2.86-0.49-3.91-1.48s-1.58-2.26-1.58-3.81c0-1.56,0.53-2.83,1.58-3.81
		s2.35-1.48,3.91-1.48C456.2,111.72,457.41,112.23,458.34,113.25z"/>
	<path d="M460.73,114.11h-2.08v-2.14h2.08v-2.92h2.52v2.92h2.77v2.14h-2.77v4.41c0,0.55,0.1,0.96,0.3,1.23
		c0.2,0.27,0.57,0.41,1.1,0.41c0.63,0,1.09-0.1,1.37-0.32v2.12c-0.46,0.22-1.13,0.34-2,0.34c-1.27,0-2.14-0.28-2.61-0.84
		c-0.46-0.56-0.69-1.47-0.69-2.73v-4.62H460.73z"/>
	<path d="M468.15,109.6c-0.31-0.3-0.46-0.65-0.46-1.06c0-0.41,0.15-0.76,0.46-1.06c0.31-0.3,0.69-0.45,1.13-0.45
		c0.46,0,0.85,0.14,1.17,0.43s0.47,0.65,0.47,1.08s-0.16,0.8-0.47,1.08c-0.32,0.29-0.7,0.43-1.17,0.43
		C468.84,110.06,468.46,109.9,468.15,109.6z M468.05,122.05v-10.09h2.52v10.09H468.05z"/>
	<path d="M474.54,120.83c-1.05-0.99-1.58-2.26-1.58-3.81c0-1.56,0.53-2.83,1.58-3.81s2.35-1.48,3.91-1.48s2.86,0.49,3.91,1.48
		s1.58,2.26,1.58,3.81c0,1.56-0.53,2.83-1.58,3.81s-2.35,1.48-3.91,1.48S475.59,121.81,474.54,120.83z M476.29,114.88
		c-0.54,0.6-0.81,1.31-0.81,2.13c0,0.83,0.27,1.54,0.81,2.13c0.54,0.6,1.26,0.89,2.15,0.89c0.9,0,1.61-0.3,2.15-0.89
		c0.54-0.6,0.81-1.31,0.81-2.13c0-0.83-0.27-1.54-0.81-2.13c-0.54-0.6-1.26-0.89-2.15-0.89
		C477.55,113.99,476.83,114.28,476.29,114.88z"/>
	<path d="M486.29,122.05v-10.09h2.4v1.62h0.04c0.57-1.25,1.6-1.87,3.09-1.87c1.26,0,2.19,0.38,2.78,1.12
		c0.6,0.75,0.89,1.7,0.89,2.85v6.37h-2.52v-5.11c0-0.36-0.02-0.68-0.05-0.96c-0.04-0.27-0.11-0.58-0.21-0.92
		c-0.11-0.34-0.29-0.61-0.56-0.8s-0.61-0.28-1.03-0.28c-0.78,0-1.37,0.24-1.74,0.72c-0.38,0.48-0.57,1.1-0.57,1.84v5.51
		C488.81,122.05,486.29,122.05,486.29,122.05z"/>
</g>
<g id="RIBBON">
	<g>
		<g>
			
				<linearGradient id="SVGID_3_" gradientUnits="userSpaceOnUse" x1="334.2604" y1="41.6708" x2="342.0596" y2="30.9174" gradientTransform="matrix(1 0 0 -1 0 132.9291)">
				<stop  offset="0" style="stop-color:#F36F21"/>
				<stop  offset="0.968" style="stop-color:#F99B1C"/>
				<stop  offset="1" style="stop-color:#F99D1C"/>
			</linearGradient>
			<polygon class="st2" points="344.53,100.22 339.68,100.22 331.79,93.05 336.63,93.05 			"/>
			
				<linearGradient id="SVGID_4_" gradientUnits="userSpaceOnUse" x1="343.3904" y1="41.6709" x2="351.1896" y2="30.9174" gradientTransform="matrix(1 0 0 -1 0 132.9291)">
				<stop  offset="0" style="stop-color:#F36F21"/>
				<stop  offset="0.968" style="stop-color:#F99B1C"/>
				<stop  offset="1" style="stop-color:#F99D1C"/>
			</linearGradient>
			<polygon class="st3" points="353.66,100.22 348.82,100.22 340.92,93.05 345.77,93.05 			"/>
			
				<linearGradient id="SVGID_5_" gradientUnits="userSpaceOnUse" x1="352.5304" y1="41.6708" x2="360.3296" y2="30.9174" gradientTransform="matrix(1 0 0 -1 0 132.9291)">
				<stop  offset="0" style="stop-color:#F36F21"/>
				<stop  offset="0.968" style="stop-color:#F99B1C"/>
				<stop  offset="1" style="stop-color:#F99D1C"/>
			</linearGradient>
			<polygon class="st4" points="362.8,100.22 357.95,100.22 350.06,93.05 354.9,93.05 			"/>
			
				<linearGradient id="SVGID_6_" gradientUnits="userSpaceOnUse" x1="361.6604" y1="41.6708" x2="369.4596" y2="30.9174" gradientTransform="matrix(1 0 0 -1 0 132.9291)">
				<stop  offset="0" style="stop-color:#F36F21"/>
				<stop  offset="0.968" style="stop-color:#F99B1C"/>
				<stop  offset="1" style="stop-color:#F99D1C"/>
			</linearGradient>
			<polygon class="st5" points="371.93,100.22 367.08,100.22 359.19,93.05 364.04,93.05 			"/>
			
				<linearGradient id="SVGID_7_" gradientUnits="userSpaceOnUse" x1="370.7937" y1="41.6732" x2="378.5963" y2="30.915" gradientTransform="matrix(1 0 0 -1 0 132.9291)">
				<stop  offset="0" style="stop-color:#F36F21"/>
				<stop  offset="0.968" style="stop-color:#F99B1C"/>
				<stop  offset="1" style="stop-color:#F99D1C"/>
			</linearGradient>
			<polygon class="st6" points="381.07,100.22 376.22,100.22 368.32,93.05 373.17,93.05 			"/>
			
				<linearGradient id="SVGID_8_" gradientUnits="userSpaceOnUse" x1="379.9304" y1="41.6708" x2="387.7296" y2="30.9174" gradientTransform="matrix(1 0 0 -1 0 132.9291)">
				<stop  offset="0" style="stop-color:#F36F21"/>
				<stop  offset="0.968" style="stop-color:#F99B1C"/>
				<stop  offset="1" style="stop-color:#F99D1C"/>
			</linearGradient>
			<polygon class="st7" points="390.2,100.22 385.35,100.22 377.46,93.05 382.31,93.05 			"/>
			
				<linearGradient id="SVGID_9_" gradientUnits="userSpaceOnUse" x1="389.0604" y1="41.6708" x2="396.8596" y2="30.9174" gradientTransform="matrix(1 0 0 -1 0 132.9291)">
				<stop  offset="0" style="stop-color:#F36F21"/>
				<stop  offset="0.968" style="stop-color:#F99B1C"/>
				<stop  offset="1" style="stop-color:#F99D1C"/>
			</linearGradient>
			<polygon class="st8" points="399.33,100.22 394.49,100.22 386.59,93.05 391.44,93.05 			"/>
			
				<linearGradient id="SVGID_10_" gradientUnits="userSpaceOnUse" x1="398.2004" y1="41.6708" x2="405.9996" y2="30.9174" gradientTransform="matrix(1 0 0 -1 0 132.9291)">
				<stop  offset="0" style="stop-color:#F36F21"/>
				<stop  offset="0.968" style="stop-color:#F99B1C"/>
				<stop  offset="1" style="stop-color:#F99D1C"/>
			</linearGradient>
			<polygon class="st9" points="408.47,100.22 403.62,100.22 395.73,93.05 400.57,93.05 			"/>
			
				<linearGradient id="SVGID_11_" gradientUnits="userSpaceOnUse" x1="407.3304" y1="41.6709" x2="415.1296" y2="30.9174" gradientTransform="matrix(1 0 0 -1 0 132.9291)">
				<stop  offset="0" style="stop-color:#F36F21"/>
				<stop  offset="0.968" style="stop-color:#F99B1C"/>
				<stop  offset="1" style="stop-color:#F99D1C"/>
			</linearGradient>
			<polygon class="st10" points="417.6,100.22 412.76,100.22 404.86,93.05 409.71,93.05 			"/>
		</g>
		<g>
			
				<linearGradient id="SVGID_12_" gradientUnits="userSpaceOnUse" x1="416.6536" y1="41.6732" x2="424.4564" y2="30.915" gradientTransform="matrix(1 0 0 -1 0 132.9291)">
				<stop  offset="0" style="stop-color:#F36F21"/>
				<stop  offset="0.968" style="stop-color:#F99B1C"/>
				<stop  offset="1" style="stop-color:#F99D1C"/>
			</linearGradient>
			<polygon class="st11" points="426.93,100.22 422.08,100.22 414.18,93.05 419.03,93.05 			"/>
			
				<linearGradient id="SVGID_13_" gradientUnits="userSpaceOnUse" x1="425.7904" y1="41.6708" x2="433.5896" y2="30.9174" gradientTransform="matrix(1 0 0 -1 0 132.9291)">
				<stop  offset="0" style="stop-color:#F36F21"/>
				<stop  offset="0.968" style="stop-color:#F99B1C"/>
				<stop  offset="1" style="stop-color:#F99D1C"/>
			</linearGradient>
			<polygon class="st12" points="436.06,100.22 431.21,100.22 423.32,93.05 428.17,93.05 			"/>
			
				<linearGradient id="SVGID_14_" gradientUnits="userSpaceOnUse" x1="434.9204" y1="41.6708" x2="442.7196" y2="30.9174" gradientTransform="matrix(1 0 0 -1 0 132.9291)">
				<stop  offset="0" style="stop-color:#F36F21"/>
				<stop  offset="0.968" style="stop-color:#F99B1C"/>
				<stop  offset="1" style="stop-color:#F99D1C"/>
			</linearGradient>
			<polygon class="st13" points="445.19,100.22 440.35,100.22 432.45,93.05 437.3,93.05 			"/>
			
				<linearGradient id="SVGID_15_" gradientUnits="userSpaceOnUse" x1="444.0604" y1="41.6708" x2="451.8596" y2="30.9174" gradientTransform="matrix(1 0 0 -1 0 132.9291)">
				<stop  offset="0" style="stop-color:#F36F21"/>
				<stop  offset="0.968" style="stop-color:#F99B1C"/>
				<stop  offset="1" style="stop-color:#F99D1C"/>
			</linearGradient>
			<polygon class="st14" points="454.33,100.22 449.48,100.22 441.59,93.05 446.43,93.05 			"/>
			
				<linearGradient id="SVGID_16_" gradientUnits="userSpaceOnUse" x1="453.1904" y1="41.6709" x2="460.9896" y2="30.9174" gradientTransform="matrix(1 0 0 -1 0 132.9291)">
				<stop  offset="0" style="stop-color:#F36F21"/>
				<stop  offset="0.968" style="stop-color:#F99B1C"/>
				<stop  offset="1" style="stop-color:#F99D1C"/>
			</linearGradient>
			<polygon class="st15" points="463.46,100.22 458.62,100.22 450.72,93.05 455.57,93.05 			"/>
			
				<linearGradient id="SVGID_17_" gradientUnits="userSpaceOnUse" x1="462.3237" y1="41.6732" x2="470.1263" y2="30.915" gradientTransform="matrix(1 0 0 -1 0 132.9291)">
				<stop  offset="0" style="stop-color:#F36F21"/>
				<stop  offset="0.968" style="stop-color:#F99B1C"/>
				<stop  offset="1" style="stop-color:#F99D1C"/>
			</linearGradient>
			<polygon class="st16" points="472.6,100.22 467.75,100.22 459.85,93.05 464.7,93.05 			"/>
			
				<linearGradient id="SVGID_18_" gradientUnits="userSpaceOnUse" x1="471.4604" y1="41.6709" x2="479.2596" y2="30.9174" gradientTransform="matrix(1 0 0 -1 0 132.9291)">
				<stop  offset="0" style="stop-color:#F36F21"/>
				<stop  offset="0.968" style="stop-color:#F99B1C"/>
				<stop  offset="1" style="stop-color:#F99D1C"/>
			</linearGradient>
			<polygon class="st17" points="481.73,100.22 476.88,100.22 468.99,93.05 473.84,93.05 			"/>
			
				<linearGradient id="SVGID_19_" gradientUnits="userSpaceOnUse" x1="480.5937" y1="41.6732" x2="488.3963" y2="30.915" gradientTransform="matrix(1 0 0 -1 0 132.9291)">
				<stop  offset="0" style="stop-color:#F36F21"/>
				<stop  offset="0.968" style="stop-color:#F99B1C"/>
				<stop  offset="1" style="stop-color:#F99D1C"/>
			</linearGradient>
			<polygon class="st18" points="490.87,100.22 486.02,100.22 478.12,93.05 482.97,93.05 			"/>
			
				<linearGradient id="SVGID_20_" gradientUnits="userSpaceOnUse" x1="489.7304" y1="41.6709" x2="497.5296" y2="30.9174" gradientTransform="matrix(1 0 0 -1 0 132.9291)">
				<stop  offset="0" style="stop-color:#F36F21"/>
				<stop  offset="0.968" style="stop-color:#F99B1C"/>
				<stop  offset="1" style="stop-color:#F99D1C"/>
			</linearGradient>
			<polygon class="st19" points="500,100.22 495.15,100.22 487.26,93.05 492.11,93.05 			"/>
		</g>
	</g>
	<g>
		<g>
			
				<linearGradient id="SVGID_21_" gradientUnits="userSpaceOnUse" x1="169.4637" y1="41.6732" x2="177.2663" y2="30.915" gradientTransform="matrix(1 0 0 -1 0 132.9291)">
				<stop  offset="0" style="stop-color:#F36F21"/>
				<stop  offset="0.968" style="stop-color:#F99B1C"/>
				<stop  offset="1" style="stop-color:#F99D1C"/>
			</linearGradient>
			<polygon class="st20" points="179.74,100.22 174.89,100.22 166.99,93.05 171.84,93.05 			"/>
			
				<linearGradient id="SVGID_22_" gradientUnits="userSpaceOnUse" x1="178.6004" y1="41.6709" x2="186.3996" y2="30.9174" gradientTransform="matrix(1 0 0 -1 0 132.9291)">
				<stop  offset="0" style="stop-color:#F36F21"/>
				<stop  offset="0.968" style="stop-color:#F99B1C"/>
				<stop  offset="1" style="stop-color:#F99D1C"/>
			</linearGradient>
			<polygon class="st21" points="188.87,100.22 184.02,100.22 176.13,93.05 180.97,93.05 			"/>
			
				<linearGradient id="SVGID_23_" gradientUnits="userSpaceOnUse" x1="187.7304" y1="41.6709" x2="195.5296" y2="30.9174" gradientTransform="matrix(1 0 0 -1 0 132.9291)">
				<stop  offset="0" style="stop-color:#F36F21"/>
				<stop  offset="0.968" style="stop-color:#F99B1C"/>
				<stop  offset="1" style="stop-color:#F99D1C"/>
			</linearGradient>
			<polygon class="st22" points="198,100.22 193.16,100.22 185.26,93.05 190.11,93.05 			"/>
			
				<linearGradient id="SVGID_24_" gradientUnits="userSpaceOnUse" x1="196.8704" y1="41.6709" x2="204.6696" y2="30.9174" gradientTransform="matrix(1 0 0 -1 0 132.9291)">
				<stop  offset="0" style="stop-color:#F36F21"/>
				<stop  offset="0.968" style="stop-color:#F99B1C"/>
				<stop  offset="1" style="stop-color:#F99D1C"/>
			</linearGradient>
			<polygon class="st23" points="207.14,100.22 202.29,100.22 194.4,93.05 199.24,93.05 			"/>
			
				<linearGradient id="SVGID_25_" gradientUnits="userSpaceOnUse" x1="206.0004" y1="41.6709" x2="213.7996" y2="30.9174" gradientTransform="matrix(1 0 0 -1 0 132.9291)">
				<stop  offset="0" style="stop-color:#F36F21"/>
				<stop  offset="0.968" style="stop-color:#F99B1C"/>
				<stop  offset="1" style="stop-color:#F99D1C"/>
			</linearGradient>
			<polygon class="st24" points="216.27,100.22 211.42,100.22 203.53,93.05 208.38,93.05 			"/>
			
				<linearGradient id="SVGID_26_" gradientUnits="userSpaceOnUse" x1="215.1337" y1="41.6732" x2="222.9363" y2="30.915" gradientTransform="matrix(1 0 0 -1 0 132.9291)">
				<stop  offset="0" style="stop-color:#F36F21"/>
				<stop  offset="0.968" style="stop-color:#F99B1C"/>
				<stop  offset="1" style="stop-color:#F99D1C"/>
			</linearGradient>
			<polygon class="st25" points="225.41,100.22 220.56,100.22 212.66,93.05 217.51,93.05 			"/>
			
				<linearGradient id="SVGID_27_" gradientUnits="userSpaceOnUse" x1="224.2704" y1="41.6708" x2="232.0696" y2="30.9174" gradientTransform="matrix(1 0 0 -1 0 132.9291)">
				<stop  offset="0" style="stop-color:#F36F21"/>
				<stop  offset="0.968" style="stop-color:#F99B1C"/>
				<stop  offset="1" style="stop-color:#F99D1C"/>
			</linearGradient>
			<polygon class="st26" points="234.54,100.22 229.69,100.22 221.8,93.05 226.65,93.05 			"/>
			
				<linearGradient id="SVGID_28_" gradientUnits="userSpaceOnUse" x1="233.4036" y1="41.6732" x2="241.2063" y2="30.915" gradientTransform="matrix(1 0 0 -1 0 132.9291)">
				<stop  offset="0" style="stop-color:#F36F21"/>
				<stop  offset="0.968" style="stop-color:#F99B1C"/>
				<stop  offset="1" style="stop-color:#F99D1C"/>
			</linearGradient>
			<polygon class="st27" points="243.68,100.22 238.83,100.22 230.93,93.05 235.78,93.05 			"/>
			
				<linearGradient id="SVGID_29_" gradientUnits="userSpaceOnUse" x1="242.5404" y1="41.6708" x2="250.3396" y2="30.9174" gradientTransform="matrix(1 0 0 -1 0 132.9291)">
				<stop  offset="0" style="stop-color:#F36F21"/>
				<stop  offset="0.968" style="stop-color:#F99B1C"/>
				<stop  offset="1" style="stop-color:#F99D1C"/>
			</linearGradient>
			<polygon class="st28" points="252.81,100.22 247.96,100.22 240.07,93.05 244.91,93.05 			"/>
			<g>
				
					<linearGradient id="SVGID_30_" gradientUnits="userSpaceOnUse" x1="169.4637" y1="41.6732" x2="177.2663" y2="30.915" gradientTransform="matrix(1 0 0 -1 0 132.9291)">
					<stop  offset="0" style="stop-color:#F36F21"/>
					<stop  offset="0.968" style="stop-color:#F99B1C"/>
					<stop  offset="1" style="stop-color:#F99D1C"/>
				</linearGradient>
				<polygon class="st29" points="179.74,100.22 174.89,100.22 166.99,93.05 171.84,93.05 				"/>
			</g>
			<g>
				
					<linearGradient id="SVGID_31_" gradientUnits="userSpaceOnUse" x1="178.6004" y1="41.6709" x2="186.3996" y2="30.9174" gradientTransform="matrix(1 0 0 -1 0 132.9291)">
					<stop  offset="0" style="stop-color:#F36F21"/>
					<stop  offset="0.968" style="stop-color:#F99B1C"/>
					<stop  offset="1" style="stop-color:#F99D1C"/>
				</linearGradient>
				<polygon class="st30" points="176.13,93.05 180.97,93.05 188.87,100.22 				"/>
			</g>
			<g>
				
					<linearGradient id="SVGID_32_" gradientUnits="userSpaceOnUse" x1="187.7304" y1="41.6709" x2="195.5296" y2="30.9174" gradientTransform="matrix(1 0 0 -1 0 132.9291)">
					<stop  offset="0" style="stop-color:#F36F21"/>
					<stop  offset="0.968" style="stop-color:#F99B1C"/>
					<stop  offset="1" style="stop-color:#F99D1C"/>
				</linearGradient>
				<polygon class="st31" points="198,100.22 193.16,100.22 185.26,93.05 190.11,93.05 				"/>
			</g>
			<g>
				
					<linearGradient id="SVGID_33_" gradientUnits="userSpaceOnUse" x1="196.8704" y1="41.6709" x2="204.6696" y2="30.9174" gradientTransform="matrix(1 0 0 -1 0 132.9291)">
					<stop  offset="0" style="stop-color:#F36F21"/>
					<stop  offset="0.968" style="stop-color:#F99B1C"/>
					<stop  offset="1" style="stop-color:#F99D1C"/>
				</linearGradient>
				<polygon class="st32" points="207.14,100.22 202.29,100.22 194.4,93.05 199.24,93.05 				"/>
			</g>
			<g>
				
					<linearGradient id="SVGID_34_" gradientUnits="userSpaceOnUse" x1="206.0004" y1="41.6709" x2="213.7996" y2="30.9174" gradientTransform="matrix(1 0 0 -1 0 132.9291)">
					<stop  offset="0" style="stop-color:#F36F21"/>
					<stop  offset="0.968" style="stop-color:#F99B1C"/>
					<stop  offset="1" style="stop-color:#F99D1C"/>
				</linearGradient>
				<polygon class="st33" points="216.27,100.22 211.42,100.22 203.53,93.05 208.38,93.05 				"/>
			</g>
			<g>
				
					<linearGradient id="SVGID_35_" gradientUnits="userSpaceOnUse" x1="215.1337" y1="41.6732" x2="222.9363" y2="30.915" gradientTransform="matrix(1 0 0 -1 0 132.9291)">
					<stop  offset="0" style="stop-color:#F36F21"/>
					<stop  offset="0.968" style="stop-color:#F99B1C"/>
					<stop  offset="1" style="stop-color:#F99D1C"/>
				</linearGradient>
				<polygon class="st34" points="225.41,100.22 220.56,100.22 212.66,93.05 217.51,93.05 				"/>
			</g>
			<g>
				
					<linearGradient id="SVGID_36_" gradientUnits="userSpaceOnUse" x1="224.2704" y1="41.6708" x2="232.0696" y2="30.9174" gradientTransform="matrix(1 0 0 -1 0 132.9291)">
					<stop  offset="0" style="stop-color:#F36F21"/>
					<stop  offset="0.968" style="stop-color:#F99B1C"/>
					<stop  offset="1" style="stop-color:#F99D1C"/>
				</linearGradient>
				<polygon class="st35" points="234.54,100.22 229.69,100.22 221.8,93.05 226.65,93.05 				"/>
			</g>
			<g>
				
					<linearGradient id="SVGID_37_" gradientUnits="userSpaceOnUse" x1="233.4036" y1="41.6732" x2="241.2063" y2="30.915" gradientTransform="matrix(1 0 0 -1 0 132.9291)">
					<stop  offset="0" style="stop-color:#F36F21"/>
					<stop  offset="0.968" style="stop-color:#F99B1C"/>
					<stop  offset="1" style="stop-color:#F99D1C"/>
				</linearGradient>
				<polygon class="st36" points="243.68,100.22 238.83,100.22 230.93,93.05 235.78,93.05 				"/>
			</g>
			<g>
				
					<linearGradient id="SVGID_38_" gradientUnits="userSpaceOnUse" x1="242.5404" y1="41.6708" x2="250.3396" y2="30.9174" gradientTransform="matrix(1 0 0 -1 0 132.9291)">
					<stop  offset="0" style="stop-color:#F36F21"/>
					<stop  offset="0.968" style="stop-color:#F99B1C"/>
					<stop  offset="1" style="stop-color:#F99D1C"/>
				</linearGradient>
				<polygon class="st37" points="252.81,100.22 247.96,100.22 240.07,93.05 244.91,93.05 				"/>
			</g>
		</g>
		<g>
			<g>
				
					<linearGradient id="SVGID_39_" gradientUnits="userSpaceOnUse" x1="251.8604" y1="41.6709" x2="259.6596" y2="30.9174" gradientTransform="matrix(1 0 0 -1 0 132.9291)">
					<stop  offset="0" style="stop-color:#F36F21"/>
					<stop  offset="0.968" style="stop-color:#F99B1C"/>
					<stop  offset="1" style="stop-color:#F99D1C"/>
				</linearGradient>
				<polygon class="st38" points="262.13,100.22 257.28,100.22 249.39,93.05 254.24,93.05 				"/>
			</g>
			<g>
				
					<linearGradient id="SVGID_40_" gradientUnits="userSpaceOnUse" x1="260.9937" y1="41.6732" x2="268.7963" y2="30.915" gradientTransform="matrix(1 0 0 -1 0 132.9291)">
					<stop  offset="0" style="stop-color:#F36F21"/>
					<stop  offset="0.968" style="stop-color:#F99B1C"/>
					<stop  offset="1" style="stop-color:#F99D1C"/>
				</linearGradient>
				<polygon class="st39" points="271.27,100.22 266.42,100.22 258.52,93.05 263.37,93.05 				"/>
			</g>
			<g>
				
					<linearGradient id="SVGID_41_" gradientUnits="userSpaceOnUse" x1="270.1304" y1="41.6708" x2="277.9296" y2="30.9174" gradientTransform="matrix(1 0 0 -1 0 132.9291)">
					<stop  offset="0" style="stop-color:#F36F21"/>
					<stop  offset="0.968" style="stop-color:#F99B1C"/>
					<stop  offset="1" style="stop-color:#F99D1C"/>
				</linearGradient>
				<polygon class="st40" points="280.4,100.22 275.55,100.22 267.66,93.05 272.51,93.05 				"/>
			</g>
			<g>
				
					<linearGradient id="SVGID_42_" gradientUnits="userSpaceOnUse" x1="279.2604" y1="41.6708" x2="287.0596" y2="30.9174" gradientTransform="matrix(1 0 0 -1 0 132.9291)">
					<stop  offset="0" style="stop-color:#F36F21"/>
					<stop  offset="0.968" style="stop-color:#F99B1C"/>
					<stop  offset="1" style="stop-color:#F99D1C"/>
				</linearGradient>
				<polygon class="st41" points="289.53,100.22 284.69,100.22 276.79,93.05 281.64,93.05 				"/>
			</g>
			<g>
				
					<linearGradient id="SVGID_43_" gradientUnits="userSpaceOnUse" x1="288.4004" y1="41.6708" x2="296.1996" y2="30.9174" gradientTransform="matrix(1 0 0 -1 0 132.9291)">
					<stop  offset="0" style="stop-color:#F36F21"/>
					<stop  offset="0.968" style="stop-color:#F99B1C"/>
					<stop  offset="1" style="stop-color:#F99D1C"/>
				</linearGradient>
				<polygon class="st42" points="298.67,100.22 293.82,100.22 285.93,93.05 290.77,93.05 				"/>
			</g>
			<g>
				
					<linearGradient id="SVGID_44_" gradientUnits="userSpaceOnUse" x1="297.5304" y1="41.6708" x2="305.3296" y2="30.9174" gradientTransform="matrix(1 0 0 -1 0 132.9291)">
					<stop  offset="0" style="stop-color:#F36F21"/>
					<stop  offset="0.968" style="stop-color:#F99B1C"/>
					<stop  offset="1" style="stop-color:#F99D1C"/>
				</linearGradient>
				<polygon class="st43" points="307.8,100.22 302.96,100.22 295.06,93.05 299.91,93.05 				"/>
			</g>
			<g>
				
					<linearGradient id="SVGID_45_" gradientUnits="userSpaceOnUse" x1="306.6704" y1="41.6708" x2="314.4696" y2="30.9174" gradientTransform="matrix(1 0 0 -1 0 132.9291)">
					<stop  offset="0" style="stop-color:#F36F21"/>
					<stop  offset="0.968" style="stop-color:#F99B1C"/>
					<stop  offset="1" style="stop-color:#F99D1C"/>
				</linearGradient>
				<polygon class="st44" points="316.94,100.22 312.09,100.22 304.2,93.05 309.04,93.05 				"/>
			</g>
			<g>
				
					<linearGradient id="SVGID_46_" gradientUnits="userSpaceOnUse" x1="315.8004" y1="41.6708" x2="323.5996" y2="30.9174" gradientTransform="matrix(1 0 0 -1 0 132.9291)">
					<stop  offset="0" style="stop-color:#F36F21"/>
					<stop  offset="0.968" style="stop-color:#F99B1C"/>
					<stop  offset="1" style="stop-color:#F99D1C"/>
				</linearGradient>
				<polygon class="st45" points="326.07,100.22 321.22,100.22 313.33,93.05 318.18,93.05 				"/>
			</g>
			<g>
				
					<linearGradient id="SVGID_47_" gradientUnits="userSpaceOnUse" x1="324.9337" y1="41.6732" x2="332.7363" y2="30.915" gradientTransform="matrix(1 0 0 -1 0 132.9291)">
					<stop  offset="0" style="stop-color:#F36F21"/>
					<stop  offset="0.968" style="stop-color:#F99B1C"/>
					<stop  offset="1" style="stop-color:#F99D1C"/>
				</linearGradient>
				<polygon class="st46" points="335.21,100.22 330.36,100.22 322.46,93.05 327.31,93.05 				"/>
			</g>
		</g>
	</g>
</g>
<g id="DIPLING">
	<path d="M165.71,83.39V23.43h23.63c8.47,0,15.67,2.6,21.59,7.79c5.93,5.19,8.89,12.59,8.89,22.19c0,4.91-0.97,9.34-2.92,13.29
		s-4.49,7.1-7.62,9.44c-3.13,2.34-6.52,4.14-10.16,5.38s-7.33,1.86-11.05,1.86L165.71,83.39L165.71,83.39z M176.38,73.73h7.96
		c7.23,0,13.08-1.66,17.57-5c4.49-3.33,6.73-8.44,6.73-15.33c0-6.94-2.02-12.07-6.05-15.37c-4.04-3.3-9.53-4.95-16.47-4.95h-9.74
		L176.38,73.73L176.38,73.73z"/>
	<path d="M229.73,83.39V23.43h10.67v59.95L229.73,83.39L229.73,83.39z"/>
	<path d="M253.53,83.39V23.43h20.15c6.49,0,11.8,1.35,15.92,4.06c4.12,2.71,6.18,7.14,6.18,13.3c0,2.94-0.44,5.48-1.31,7.62
		c-0.88,2.15-2.02,3.87-3.43,5.17c-1.41,1.3-3.19,2.33-5.34,3.09s-4.31,1.27-6.48,1.52s-4.64,0.38-7.41,0.38h-7.62v24.81
		L253.53,83.39L253.53,83.39z M264.19,49.43h6.44c1.52,0,2.81-0.03,3.85-0.08c1.04-0.06,2.26-0.24,3.64-0.55
		c1.38-0.31,2.5-0.75,3.34-1.31c0.85-0.56,1.58-1.4,2.2-2.5c0.62-1.1,0.93-2.44,0.93-4.02c0-5.59-4.26-8.38-12.79-8.38h-7.62
		L264.19,49.43L264.19,49.43z"/>
	<path d="M305.26,83.39V23.43h10.67v50.3h25.49v9.65h-36.16V83.39z"/>
	<path d="M348.96,83.39V23.43h10.67v59.95L348.96,83.39L348.96,83.39z"/>
	<path d="M372.76,83.39V23.43h14.14l29.05,44.54h0.17V23.43h10.67v59.95h-13.55L383.6,37.4h-0.17v45.98L372.76,83.39L372.76,83.39z"
		/>
	<path d="M493.43,48.33v30.65c-7.4,3.95-15.67,5.93-24.81,5.93c-9.31,0-16.92-2.88-22.82-8.64s-8.85-13.3-8.85-22.61
		c0-9.54,2.95-17.22,8.85-23.03s13.51-8.72,22.82-8.72c10.11,0,17.98,2.51,23.63,7.54l-7.88,7.96c-4.01-3.9-9.23-5.84-15.67-5.84
		c-6.1,0-11.05,2.05-14.86,6.14s-5.72,9.19-5.72,15.29c0,6.49,1.91,11.83,5.72,16c3.81,4.18,8.76,6.27,14.86,6.27
		c5.7,0,10.39-1.04,14.06-3.13V57.98h-12.28v-9.65H493.43z"/>
</g>
</svg>
