<?xml version="1.0" encoding="utf-8"?>
<!-- Generator: Adobe Illustrator 24.0.1, SVG Export Plug-In . SVG Version: 6.00 Build 0)  -->
<svg version="1.1" id="Layer_1" xmlns="http://www.w3.org/2000/svg" xmlns:xlink="http://www.w3.org/1999/xlink" x="0px" y="0px"
	 viewBox="0 0 95 76" style="enable-background:new 0 0 95 76;" xml:space="preserve">
<style type="text/css">
	.st0{fill:#1E3050;}
</style>
<g>
	<path class="st0" d="M13.64,0.01c13.52,0.02,27.05,0.05,40.57,0.06c2.59,0,5.18-0.04,7.77-0.07c3.89,1,4.66,1.97,4.66,5.92
		c0,7.28-0.04,14.57,0.03,21.85c0.01,1.3-0.39,1.85-1.6,2.31c-11.2,4.23-17.66,13.64-17.48,25.57c0.02,1.59-0.74,1.42-1.71,1.42
		c-10.52,0-21.05-0.01-31.57,0c-2.49,0-4.31,1.56-4.78,4c-0.4,2.07,0.87,4.29,2.89,5.25c0.81,0.39,1.61,0.3,2.41,0.3
		c11.09,0.02,22.19,0.04,33.28-0.03c1.63-0.01,2.61,0.36,3.44,1.88c1.3,2.39,3.08,4.48,5.28,6.16c0.41,0.31,0.99,0.58,1.04,1.37
		c-0.89,0-1.76,0-2.62,0c-13.31,0-26.63,0-39.94,0C6.12,76,0.25,70.12,0.25,60.92c0-15.08,0.17-30.16-0.06-45.23
		C0.05,7.03,5.69,0.93,12.73,0.28C13.04,0.25,13.34,0.1,13.64,0.01z"/>
	<path class="st0" d="M95.18,54.89C95.12,66.7,85.55,76.09,73.65,76c-11.83-0.09-21.12-9.61-21.07-21.57
		c0.05-11.47,9.57-21.33,22.19-20.99C85.98,33.75,95.23,43.25,95.18,54.89z M77,57.2c-1.23,2.02-2.98,3.22-4.18,4.89
		c-0.25,0.35-0.65,0.57-0.54,1.11c0.42,1.99,2.93,2.91,4.46,1.48c2.86-2.69,5.61-5.5,8.37-8.31c0.98-1,1.06-2.21,0.07-3.23
		c-2.79-2.86-5.6-5.7-8.48-8.46c-1.24-1.19-2.69-0.84-3.73,0.54c-0.66,0.88-0.69,1.6,0.06,2.4c1.3,1.39,2.56,2.82,4.11,4.53
		c-4.21,0-7.94-0.01-11.67,0c-2.28,0.01-3.77,1.02-3.86,2.54c-0.09,1.42,1.52,2.48,3.82,2.49C69.21,57.2,72.98,57.2,77,57.2z"/>
</g>
</svg>
